<svg width="765" height="333" xmlns="http://www.w3.org/2000/svg" xmlns:xlink="http://www.w3.org/1999/xlink" xml:space="preserve" overflow="hidden"><defs><clipPath id="clip0"><rect x="257" y="193" width="765" height="333"/></clipPath><clipPath id="clip1"><rect x="257" y="193" width="765" height="333"/></clipPath><clipPath id="clip2"><rect x="258" y="194" width="764" height="332"/></clipPath><clipPath id="clip3"><rect x="258" y="194" width="764" height="332"/></clipPath><clipPath id="clip4"><rect x="258" y="194" width="764" height="332"/></clipPath></defs><g clip-path="url(#clip0)" transform="translate(-257 -193)"><g clip-path="url(#clip1)"><g clip-path="url(#clip2)"><g clip-path="url(#clip3)"><g clip-path="url(#clip4)"><path d="M742.095 234.354 761.626 234.354 761.626 253.885 742.095 253.885Z" fill="#020304" fill-rule="nonzero" fill-opacity="1" transform="matrix(1.0017 0 0 1 258.539 194)"/><path d="M742.095 214.823 761.626 214.823 761.626 234.354 742.095 234.354Z" fill="#020304" fill-rule="nonzero" fill-opacity="1" transform="matrix(1.0017 0 0 1 258.539 194)"/><path d="M742.095 195.302 761.626 195.302 761.626 214.823 742.095 214.823Z" fill="#020304" fill-rule="nonzero" fill-opacity="1" transform="matrix(1.0017 0 0 1 258.539 194)"/><path d="M742.095 175.771 761.626 175.771 761.626 195.302 742.095 195.302Z" fill="#020304" fill-rule="nonzero" fill-opacity="1" transform="matrix(1.0017 0 0 1 258.539 194)"/><path d="M742.095 156.239 761.626 156.239 761.626 175.771 742.095 175.771Z" fill="#020304" fill-rule="nonzero" fill-opacity="1" transform="matrix(1.0017 0 0 1 258.539 194)"/><path d="M742.095 136.708 761.626 136.708 761.626 156.239 742.095 156.239Z" fill="#020304" fill-rule="nonzero" fill-opacity="1" transform="matrix(1.0017 0 0 1 258.539 194)"/><path d="M742.095 117.177 761.626 117.177 761.626 136.708 742.095 136.708Z" fill="#020304" fill-rule="nonzero" fill-opacity="1" transform="matrix(1.0017 0 0 1 258.539 194)"/><path d="M722.574 253.885 742.095 253.885 742.095 273.416 722.574 273.416Z" fill="#020304" fill-rule="nonzero" fill-opacity="1" transform="matrix(1.0017 0 0 1 258.539 194)"/><path d="M722.574 234.354 742.095 234.354 742.095 253.885 722.574 253.885Z" fill="#282929" fill-rule="nonzero" fill-opacity="1" transform="matrix(1.0017 0 0 1 258.539 194)"/><path d="M722.574 214.823 742.095 214.823 742.095 234.354 722.574 234.354Z" fill="#282929" fill-rule="nonzero" fill-opacity="1" transform="matrix(1.0017 0 0 1 258.539 194)"/><path d="M722.574 195.302 742.095 195.302 742.095 214.823 722.574 214.823Z" fill="#282929" fill-rule="nonzero" fill-opacity="1" transform="matrix(1.0017 0 0 1 258.539 194)"/><path d="M722.574 175.771 742.095 175.771 742.095 195.302 722.574 195.302Z" fill="#282929" fill-rule="nonzero" fill-opacity="1" transform="matrix(1.0017 0 0 1 258.539 194)"/><path d="M722.574 156.239 742.095 156.239 742.095 175.771 722.574 175.771Z" fill="#282929" fill-rule="nonzero" fill-opacity="1" transform="matrix(1.0017 0 0 1 258.539 194)"/><path d="M722.574 136.708 742.095 136.708 742.095 156.239 722.574 156.239Z" fill="#282929" fill-rule="nonzero" fill-opacity="1" transform="matrix(1.0017 0 0 1 258.539 194)"/><path d="M722.574 117.177 742.095 117.177 742.095 136.708 722.574 136.708Z" fill="#282929" fill-rule="nonzero" fill-opacity="1" transform="matrix(1.0017 0 0 1 258.539 194)"/><path d="M722.574 97.6559 742.095 97.6559 742.095 117.177 722.574 117.177Z" fill="#020304" fill-rule="nonzero" fill-opacity="1" transform="matrix(1.0017 0 0 1 258.539 194)"/><path d="M703.042 273.416 722.574 273.416 722.574 292.938 703.042 292.938Z" fill="#020304" fill-rule="nonzero" fill-opacity="1" transform="matrix(1.0017 0 0 1 258.539 194)"/><path d="M703.042 253.885 722.574 253.885 722.574 273.416 703.042 273.416Z" fill="#282929" fill-rule="nonzero" fill-opacity="1" transform="matrix(1.0017 0 0 1 258.539 194)"/><path d="M703.042 234.354 722.574 234.354 722.574 253.885 703.042 253.885Z" fill="#282929" fill-rule="nonzero" fill-opacity="1" transform="matrix(1.0017 0 0 1 258.539 194)"/><path d="M703.042 214.823 722.574 214.823 722.574 234.354 703.042 234.354Z" fill="#282929" fill-rule="nonzero" fill-opacity="1" transform="matrix(1.0017 0 0 1 258.539 194)"/><path d="M703.042 195.302 722.574 195.302 722.574 214.823 703.042 214.823Z" fill="#282929" fill-rule="nonzero" fill-opacity="1" transform="matrix(1.0017 0 0 1 258.539 194)"/><path d="M703.042 175.771 722.574 175.771 722.574 195.302 703.042 195.302Z" fill="#282929" fill-rule="nonzero" fill-opacity="1" transform="matrix(1.0017 0 0 1 258.539 194)"/><path d="M703.042 156.239 722.574 156.239 722.574 175.771 703.042 175.771Z" fill="#282929" fill-rule="nonzero" fill-opacity="1" transform="matrix(1.0017 0 0 1 258.539 194)"/><path d="M703.042 136.708 722.574 136.708 722.574 156.239 703.042 156.239Z" fill="#282929" fill-rule="nonzero" fill-opacity="1" transform="matrix(1.0017 0 0 1 258.539 194)"/><path d="M703.042 117.177 722.574 117.177 722.574 136.708 703.042 136.708Z" fill="#282929" fill-rule="nonzero" fill-opacity="1" transform="matrix(1.0017 0 0 1 258.539 194)"/><path d="M703.042 97.6559 722.574 97.6559 722.574 117.177 703.042 117.177Z" fill="#020304" fill-rule="nonzero" fill-opacity="1" transform="matrix(1.0017 0 0 1 258.539 194)"/><path d="M683.511 292.938 703.042 292.938 703.042 312.469 683.511 312.469Z" fill="#020304" fill-rule="nonzero" fill-opacity="1" transform="matrix(1.0017 0 0 1 258.539 194)"/><path d="M683.511 273.416 703.042 273.416 703.042 292.938 683.511 292.938Z" fill="#282929" fill-rule="nonzero" fill-opacity="1" transform="matrix(1.0017 0 0 1 258.539 194)"/><path d="M683.511 253.885 703.042 253.885 703.042 273.416 683.511 273.416Z" fill="#282929" fill-rule="nonzero" fill-opacity="1" transform="matrix(1.0017 0 0 1 258.539 194)"/><path d="M683.511 234.354 703.042 234.354 703.042 253.885 683.511 253.885Z" fill="#282929" fill-rule="nonzero" fill-opacity="1" transform="matrix(1.0017 0 0 1 258.539 194)"/><path d="M683.511 214.823 703.042 214.823 703.042 234.354 683.511 234.354Z" fill="#282929" fill-rule="nonzero" fill-opacity="1" transform="matrix(1.0017 0 0 1 258.539 194)"/><path d="M683.511 195.302 703.042 195.302 703.042 214.823 683.511 214.823Z" fill="#282929" fill-rule="nonzero" fill-opacity="1" transform="matrix(1.0017 0 0 1 258.539 194)"/><path d="M683.511 175.771 703.042 175.771 703.042 195.302 683.511 195.302Z" fill="#282929" fill-rule="nonzero" fill-opacity="1" transform="matrix(1.0017 0 0 1 258.539 194)"/><path d="M683.511 156.239 703.042 156.239 703.042 175.771 683.511 175.771Z" fill="#282929" fill-rule="nonzero" fill-opacity="1" transform="matrix(1.0017 0 0 1 258.539 194)"/><path d="M683.511 136.708 703.042 136.708 703.042 156.239 683.511 156.239Z" fill="#282929" fill-rule="nonzero" fill-opacity="1" transform="matrix(1.0017 0 0 1 258.539 194)"/><path d="M683.511 117.177 703.042 117.177 703.042 136.708 683.511 136.708Z" fill="#282929" fill-rule="nonzero" fill-opacity="1" transform="matrix(1.0017 0 0 1 258.539 194)"/><path d="M683.511 97.6559 703.042 97.6559 703.042 117.177 683.511 117.177Z" fill="#282929" fill-rule="nonzero" fill-opacity="1" transform="matrix(1.0017 0 0 1 258.539 194)"/><path d="M683.511 78.1247 703.042 78.1247 703.042 97.6559 683.511 97.6559Z" fill="#020304" fill-rule="nonzero" fill-opacity="1" transform="matrix(1.0017 0 0 1 258.539 194)"/><path d="M663.98 312.469 683.511 312.469 683.511 332 663.98 332Z" fill="#020304" fill-rule="nonzero" fill-opacity="1" transform="matrix(1.0017 0 0 1 258.539 194)"/><path d="M663.98 292.938 683.511 292.938 683.511 312.469 663.98 312.469Z" fill="#282929" fill-rule="nonzero" fill-opacity="1" transform="matrix(1.0017 0 0 1 258.539 194)"/><path d="M663.98 273.416 683.511 273.416 683.511 292.938 663.98 292.938Z" fill="#282929" fill-rule="nonzero" fill-opacity="1" transform="matrix(1.0017 0 0 1 258.539 194)"/><path d="M663.98 253.885 683.511 253.885 683.511 273.416 663.98 273.416Z" fill="#282929" fill-rule="nonzero" fill-opacity="1" transform="matrix(1.0017 0 0 1 258.539 194)"/><path d="M663.98 234.354 683.511 234.354 683.511 253.885 663.98 253.885Z" fill="#282929" fill-rule="nonzero" fill-opacity="1" transform="matrix(1.0017 0 0 1 258.539 194)"/><path d="M663.98 214.823 683.511 214.823 683.511 234.354 663.98 234.354Z" fill="#282929" fill-rule="nonzero" fill-opacity="1" transform="matrix(1.0017 0 0 1 258.539 194)"/><path d="M663.98 195.302 683.511 195.302 683.511 214.823 663.98 214.823Z" fill="#282929" fill-rule="nonzero" fill-opacity="1" transform="matrix(1.0017 0 0 1 258.539 194)"/><path d="M663.98 175.771 683.511 175.771 683.511 195.302 663.98 195.302Z" fill="#282929" fill-rule="nonzero" fill-opacity="1" transform="matrix(1.0017 0 0 1 258.539 194)"/><path d="M663.98 156.239 683.511 156.239 683.511 175.771 663.98 175.771Z" fill="#282929" fill-rule="nonzero" fill-opacity="1" transform="matrix(1.0017 0 0 1 258.539 194)"/><path d="M663.98 136.708 683.511 136.708 683.511 156.239 663.98 156.239Z" fill="#282929" fill-rule="nonzero" fill-opacity="1" transform="matrix(1.0017 0 0 1 258.539 194)"/><path d="M663.98 117.177 683.511 117.177 683.511 136.708 663.98 136.708Z" fill="#282929" fill-rule="nonzero" fill-opacity="1" transform="matrix(1.0017 0 0 1 258.539 194)"/><path d="M663.98 97.6559 683.511 97.6559 683.511 117.177 663.98 117.177Z" fill="#282929" fill-rule="nonzero" fill-opacity="1" transform="matrix(1.0017 0 0 1 258.539 194)"/><path d="M663.98 78.1247 683.511 78.1247 683.511 97.6559 663.98 97.6559Z" fill="#020304" fill-rule="nonzero" fill-opacity="1" transform="matrix(1.0017 0 0 1 258.539 194)"/><path d="M644.449 292.938 663.98 292.938 663.98 312.469 644.449 312.469Z" fill="#020304" fill-rule="nonzero" fill-opacity="1" transform="matrix(1.0017 0 0 1 258.539 194)"/><path d="M644.449 273.416 663.98 273.416 663.98 292.938 644.449 292.938Z" fill="#282929" fill-rule="nonzero" fill-opacity="1" transform="matrix(1.0017 0 0 1 258.539 194)"/><path d="M644.449 253.885 663.98 253.885 663.98 273.416 644.449 273.416Z" fill="#282929" fill-rule="nonzero" fill-opacity="1" transform="matrix(1.0017 0 0 1 258.539 194)"/><path d="M644.449 234.354 663.98 234.354 663.98 253.885 644.449 253.885Z" fill="#282929" fill-rule="nonzero" fill-opacity="1" transform="matrix(1.0017 0 0 1 258.539 194)"/><path d="M644.449 214.823 663.98 214.823 663.98 234.354 644.449 234.354Z" fill="#282929" fill-rule="nonzero" fill-opacity="1" transform="matrix(1.0017 0 0 1 258.539 194)"/><path d="M644.449 195.302 663.98 195.302 663.98 214.823 644.449 214.823Z" fill="#282929" fill-rule="nonzero" fill-opacity="1" transform="matrix(1.0017 0 0 1 258.539 194)"/><path d="M644.449 175.771 663.98 175.771 663.98 195.302 644.449 195.302Z" fill="#282929" fill-rule="nonzero" fill-opacity="1" transform="matrix(1.0017 0 0 1 258.539 194)"/><path d="M644.449 156.239 663.98 156.239 663.98 175.771 644.449 175.771Z" fill="#282929" fill-rule="nonzero" fill-opacity="1" transform="matrix(1.0017 0 0 1 258.539 194)"/><path d="M644.449 136.708 663.98 136.708 663.98 156.239 644.449 156.239Z" fill="#282929" fill-rule="nonzero" fill-opacity="1" transform="matrix(1.0017 0 0 1 258.539 194)"/><path d="M644.449 117.177 663.98 117.177 663.98 136.708 644.449 136.708Z" fill="#282929" fill-rule="nonzero" fill-opacity="1" transform="matrix(1.0017 0 0 1 258.539 194)"/><path d="M644.449 97.6559 663.98 97.6559 663.98 117.177 644.449 117.177Z" fill="#282929" fill-rule="nonzero" fill-opacity="1" transform="matrix(1.0017 0 0 1 258.539 194)"/><path d="M644.449 78.1247 663.98 78.1247 663.98 97.6559 644.449 97.6559Z" fill="#020304" fill-rule="nonzero" fill-opacity="1" transform="matrix(1.0017 0 0 1 258.539 194)"/><path d="M624.928 273.416 644.449 273.416 644.449 292.938 624.928 292.938Z" fill="#020304" fill-rule="nonzero" fill-opacity="1" transform="matrix(1.0017 0 0 1 258.539 194)"/><path d="M624.928 253.885 644.449 253.885 644.449 273.416 624.928 273.416Z" fill="#282929" fill-rule="nonzero" fill-opacity="1" transform="matrix(1.0017 0 0 1 258.539 194)"/><path d="M624.928 234.354 644.449 234.354 644.449 253.885 624.928 253.885Z" fill="#282929" fill-rule="nonzero" fill-opacity="1" transform="matrix(1.0017 0 0 1 258.539 194)"/><path d="M624.928 214.823 644.449 214.823 644.449 234.354 624.928 234.354Z" fill="#282929" fill-rule="nonzero" fill-opacity="1" transform="matrix(1.0017 0 0 1 258.539 194)"/><path d="M624.928 195.302 644.449 195.302 644.449 214.823 624.928 214.823Z" fill="#282929" fill-rule="nonzero" fill-opacity="1" transform="matrix(1.0017 0 0 1 258.539 194)"/><path d="M624.928 175.771 644.449 175.771 644.449 195.302 624.928 195.302Z" fill="#282929" fill-rule="nonzero" fill-opacity="1" transform="matrix(1.0017 0 0 1 258.539 194)"/><path d="M624.928 156.239 644.449 156.239 644.449 175.771 624.928 175.771Z" fill="#282929" fill-rule="nonzero" fill-opacity="1" transform="matrix(1.0017 0 0 1 258.539 194)"/><path d="M624.928 136.708 644.449 136.708 644.449 156.239 624.928 156.239Z" fill="#282929" fill-rule="nonzero" fill-opacity="1" transform="matrix(1.0017 0 0 1 258.539 194)"/><path d="M624.928 117.177 644.449 117.177 644.449 136.708 624.928 136.708Z" fill="#282929" fill-rule="nonzero" fill-opacity="1" transform="matrix(1.0017 0 0 1 258.539 194)"/><path d="M624.928 97.6559 644.449 97.6559 644.449 117.177 624.928 117.177Z" fill="#282929" fill-rule="nonzero" fill-opacity="1" transform="matrix(1.0017 0 0 1 258.539 194)"/><path d="M624.928 78.1247 644.449 78.1247 644.449 97.6559 624.928 97.6559Z" fill="#282929" fill-rule="nonzero" fill-opacity="1" transform="matrix(1.0017 0 0 1 258.539 194)"/><path d="M624.928 58.5935 644.449 58.5935 644.449 78.1247 624.928 78.1247Z" fill="#020304" fill-rule="nonzero" fill-opacity="1" transform="matrix(1.0017 0 0 1 258.539 194)"/><path d="M624.928 39.0623 644.449 39.0623 644.449 58.5935 624.928 58.5935Z" fill="#020304" fill-rule="nonzero" fill-opacity="1" transform="matrix(1.0017 0 0 1 258.539 194)"/><path d="M605.397 253.885 624.928 253.885 624.928 273.416 605.397 273.416Z" fill="#020304" fill-rule="nonzero" fill-opacity="1" transform="matrix(1.0017 0 0 1 258.539 194)"/><path d="M605.397 234.354 624.928 234.354 624.928 253.885 605.397 253.885Z" fill="#282929" fill-rule="nonzero" fill-opacity="1" transform="matrix(1.0017 0 0 1 258.539 194)"/><path d="M605.397 214.823 624.928 214.823 624.928 234.354 605.397 234.354Z" fill="#282929" fill-rule="nonzero" fill-opacity="1" transform="matrix(1.0017 0 0 1 258.539 194)"/><path d="M605.397 195.302 624.928 195.302 624.928 214.823 605.397 214.823Z" fill="#282929" fill-rule="nonzero" fill-opacity="1" transform="matrix(1.0017 0 0 1 258.539 194)"/><path d="M605.397 175.771 624.928 175.771 624.928 195.302 605.397 195.302Z" fill="#282929" fill-rule="nonzero" fill-opacity="1" transform="matrix(1.0017 0 0 1 258.539 194)"/><path d="M605.397 156.239 624.928 156.239 624.928 175.771 605.397 175.771Z" fill="#282929" fill-rule="nonzero" fill-opacity="1" transform="matrix(1.0017 0 0 1 258.539 194)"/><path d="M605.397 136.708 624.928 136.708 624.928 156.239 605.397 156.239Z" fill="#282929" fill-rule="nonzero" fill-opacity="1" transform="matrix(1.0017 0 0 1 258.539 194)"/><path d="M605.397 117.177 624.928 117.177 624.928 136.708 605.397 136.708Z" fill="#282929" fill-rule="nonzero" fill-opacity="1" transform="matrix(1.0017 0 0 1 258.539 194)"/><path d="M605.397 97.6559 624.928 97.6559 624.928 117.177 605.397 117.177Z" fill="#282929" fill-rule="nonzero" fill-opacity="1" transform="matrix(1.0017 0 0 1 258.539 194)"/><path d="M605.397 78.1247 624.928 78.1247 624.928 97.6559 605.397 97.6559Z" fill="#282929" fill-rule="nonzero" fill-opacity="1" transform="matrix(1.0017 0 0 1 258.539 194)"/><path d="M605.397 58.5935 624.928 58.5935 624.928 78.1247 605.397 78.1247Z" fill="#020304" fill-rule="nonzero" fill-opacity="1" transform="matrix(1.0017 0 0 1 258.539 194)"/><path d="M605.397 39.0623 624.928 39.0623 624.928 58.5935 605.397 58.5935Z" fill="#282929" fill-rule="nonzero" fill-opacity="1" transform="matrix(1.0017 0 0 1 258.539 194)"/><path d="M605.397 19.5312 624.928 19.5312 624.928 39.0623 605.397 39.0623Z" fill="#020304" fill-rule="nonzero" fill-opacity="1" transform="matrix(1.0017 0 0 1 258.539 194)"/><path d="M585.865 253.885 605.396 253.885 605.396 273.416 585.865 273.416Z" fill="#020304" fill-rule="nonzero" fill-opacity="1" transform="matrix(1.0017 0 0 1 258.539 194)"/><path d="M585.865 234.354 605.396 234.354 605.396 253.885 585.865 253.885Z" fill="#282929" fill-rule="nonzero" fill-opacity="1" transform="matrix(1.0017 0 0 1 258.539 194)"/><path d="M585.865 214.823 605.396 214.823 605.396 234.354 585.865 234.354Z" fill="#282929" fill-rule="nonzero" fill-opacity="1" transform="matrix(1.0017 0 0 1 258.539 194)"/><path d="M585.865 195.302 605.396 195.302 605.396 214.823 585.865 214.823Z" fill="#282929" fill-rule="nonzero" fill-opacity="1" transform="matrix(1.0017 0 0 1 258.539 194)"/><path d="M585.865 175.771 605.396 175.771 605.396 195.302 585.865 195.302Z" fill="#282929" fill-rule="nonzero" fill-opacity="1" transform="matrix(1.0017 0 0 1 258.539 194)"/><path d="M585.865 156.239 605.396 156.239 605.396 175.771 585.865 175.771Z" fill="#282929" fill-rule="nonzero" fill-opacity="1" transform="matrix(1.0017 0 0 1 258.539 194)"/><path d="M585.865 136.708 605.396 136.708 605.396 156.239 585.865 156.239Z" fill="#282929" fill-rule="nonzero" fill-opacity="1" transform="matrix(1.0017 0 0 1 258.539 194)"/><path d="M585.865 117.177 605.396 117.177 605.396 136.708 585.865 136.708Z" fill="#282929" fill-rule="nonzero" fill-opacity="1" transform="matrix(1.0017 0 0 1 258.539 194)"/><path d="M585.865 97.6559 605.396 97.6559 605.396 117.177 585.865 117.177Z" fill="#282929" fill-rule="nonzero" fill-opacity="1" transform="matrix(1.0017 0 0 1 258.539 194)"/><path d="M585.865 78.1247 605.396 78.1247 605.396 97.6559 585.865 97.6559Z" fill="#282929" fill-rule="nonzero" fill-opacity="1" transform="matrix(1.0017 0 0 1 258.539 194)"/><path d="M585.865 58.5935 605.396 58.5935 605.396 78.1247 585.865 78.1247Z" fill="#020304" fill-rule="nonzero" fill-opacity="1" transform="matrix(1.0017 0 0 1 258.539 194)"/><path d="M585.865 39.0623 605.396 39.0623 605.396 58.5935 585.865 58.5935Z" fill="#282929" fill-rule="nonzero" fill-opacity="1" transform="matrix(1.0017 0 0 1 258.539 194)"/><path d="M585.865 19.5312 605.396 19.5312 605.396 39.0623 585.865 39.0623Z" fill="#282929" fill-rule="nonzero" fill-opacity="1" transform="matrix(1.0017 0 0 1 258.539 194)"/><path d="M585.865 0.0099598 605.396 0.0099598 605.396 19.5312 585.865 19.5312Z" fill="#020304" fill-rule="nonzero" fill-opacity="1" transform="matrix(1.0017 0 0 1 258.539 194)"/><path d="M566.334 253.885 585.865 253.885 585.865 273.416 566.334 273.416Z" fill="#020304" fill-rule="nonzero" fill-opacity="1" transform="matrix(1.0017 0 0 1 258.539 194)"/><path d="M566.334 234.354 585.865 234.354 585.865 253.885 566.334 253.885Z" fill="#282929" fill-rule="nonzero" fill-opacity="1" transform="matrix(1.0017 0 0 1 258.539 194)"/><path d="M566.334 214.823 585.865 214.823 585.865 234.354 566.334 234.354Z" fill="#282929" fill-rule="nonzero" fill-opacity="1" transform="matrix(1.0017 0 0 1 258.539 194)"/><path d="M566.334 195.302 585.865 195.302 585.865 214.823 566.334 214.823Z" fill="#282929" fill-rule="nonzero" fill-opacity="1" transform="matrix(1.0017 0 0 1 258.539 194)"/><path d="M566.334 175.771 585.865 175.771 585.865 195.302 566.334 195.302Z" fill="#282929" fill-rule="nonzero" fill-opacity="1" transform="matrix(1.0017 0 0 1 258.539 194)"/><path d="M566.334 156.239 585.865 156.239 585.865 175.771 566.334 175.771Z" fill="#282929" fill-rule="nonzero" fill-opacity="1" transform="matrix(1.0017 0 0 1 258.539 194)"/><path d="M566.334 136.708 585.865 136.708 585.865 156.239 566.334 156.239Z" fill="#282929" fill-rule="nonzero" fill-opacity="1" transform="matrix(1.0017 0 0 1 258.539 194)"/><path d="M566.334 117.177 585.865 117.177 585.865 136.708 566.334 136.708Z" fill="#282929" fill-rule="nonzero" fill-opacity="1" transform="matrix(1.0017 0 0 1 258.539 194)"/><path d="M566.334 97.6559 585.865 97.6559 585.865 117.177 566.334 117.177Z" fill="#282929" fill-rule="nonzero" fill-opacity="1" transform="matrix(1.0017 0 0 1 258.539 194)"/><path d="M566.334 78.1247 585.865 78.1247 585.865 97.6559 566.334 97.6559Z" fill="#282929" fill-rule="nonzero" fill-opacity="1" transform="matrix(1.0017 0 0 1 258.539 194)"/><path d="M566.334 58.5935 585.865 58.5935 585.865 78.1247 566.334 78.1247Z" fill="#282929" fill-rule="nonzero" fill-opacity="1" transform="matrix(1.0017 0 0 1 258.539 194)"/><path d="M566.334 39.0623 585.865 39.0623 585.865 58.5935 566.334 58.5935Z" fill="#282929" fill-rule="nonzero" fill-opacity="1" transform="matrix(1.0017 0 0 1 258.539 194)"/><path d="M566.334 19.5312 585.865 19.5312 585.865 39.0623 566.334 39.0623Z" fill="#282929" fill-rule="nonzero" fill-opacity="1" transform="matrix(1.0017 0 0 1 258.539 194)"/><path d="M566.334 0.0099598 585.865 0.0099598 585.865 19.5312 566.334 19.5312Z" fill="#020304" fill-rule="nonzero" fill-opacity="1" transform="matrix(1.0017 0 0 1 258.539 194)"/><path d="M546.803 253.885 566.334 253.885 566.334 273.416 546.803 273.416Z" fill="#020304" fill-rule="nonzero" fill-opacity="1" transform="matrix(1.0017 0 0 1 258.539 194)"/><path d="M546.803 234.354 566.334 234.354 566.334 253.885 546.803 253.885Z" fill="#282929" fill-rule="nonzero" fill-opacity="1" transform="matrix(1.0017 0 0 1 258.539 194)"/><path d="M546.803 214.823 566.334 214.823 566.334 234.354 546.803 234.354Z" fill="#282929" fill-rule="nonzero" fill-opacity="1" transform="matrix(1.0017 0 0 1 258.539 194)"/><path d="M546.803 195.302 566.334 195.302 566.334 214.823 546.803 214.823Z" fill="#282929" fill-rule="nonzero" fill-opacity="1" transform="matrix(1.0017 0 0 1 258.539 194)"/><path d="M546.803 175.771 566.334 175.771 566.334 195.302 546.803 195.302Z" fill="#282929" fill-rule="nonzero" fill-opacity="1" transform="matrix(1.0017 0 0 1 258.539 194)"/><path d="M546.803 156.239 566.334 156.239 566.334 175.771 546.803 175.771Z" fill="#282929" fill-rule="nonzero" fill-opacity="1" transform="matrix(1.0017 0 0 1 258.539 194)"/><path d="M546.803 136.708 566.334 136.708 566.334 156.239 546.803 156.239Z" fill="#282929" fill-rule="nonzero" fill-opacity="1" transform="matrix(1.0017 0 0 1 258.539 194)"/><path d="M546.803 117.177 566.334 117.177 566.334 136.708 546.803 136.708Z" fill="#282929" fill-rule="nonzero" fill-opacity="1" transform="matrix(1.0017 0 0 1 258.539 194)"/><path d="M546.803 97.6559 566.334 97.6559 566.334 117.177 546.803 117.177Z" fill="#282929" fill-rule="nonzero" fill-opacity="1" transform="matrix(1.0017 0 0 1 258.539 194)"/><path d="M546.803 78.1247 566.334 78.1247 566.334 97.6559 546.803 97.6559Z" fill="#282929" fill-rule="nonzero" fill-opacity="1" transform="matrix(1.0017 0 0 1 258.539 194)"/><path d="M546.803 58.5935 566.334 58.5935 566.334 78.1247 546.803 78.1247Z" fill="#020304" fill-rule="nonzero" fill-opacity="1" transform="matrix(1.0017 0 0 1 258.539 194)"/><path d="M546.803 39.0623 566.334 39.0623 566.334 58.5935 546.803 58.5935Z" fill="#282929" fill-rule="nonzero" fill-opacity="1" transform="matrix(1.0017 0 0 1 258.539 194)"/><path d="M546.803 19.5312 566.334 19.5312 566.334 39.0623 546.803 39.0623Z" fill="#282929" fill-rule="nonzero" fill-opacity="1" transform="matrix(1.0017 0 0 1 258.539 194)"/><path d="M546.803 0.0099598 566.334 0.0099598 566.334 19.5312 546.803 19.5312Z" fill="#020304" fill-rule="nonzero" fill-opacity="1" transform="matrix(1.0017 0 0 1 258.539 194)"/><path d="M527.282 253.885 546.803 253.885 546.803 273.416 527.282 273.416Z" fill="#020304" fill-rule="nonzero" fill-opacity="1" transform="matrix(1.0017 0 0 1 258.539 194)"/><path d="M527.282 234.354 546.803 234.354 546.803 253.885 527.282 253.885Z" fill="#282929" fill-rule="nonzero" fill-opacity="1" transform="matrix(1.0017 0 0 1 258.539 194)"/><path d="M527.282 214.823 546.803 214.823 546.803 234.354 527.282 234.354Z" fill="#282929" fill-rule="nonzero" fill-opacity="1" transform="matrix(1.0017 0 0 1 258.539 194)"/><path d="M527.282 195.302 546.803 195.302 546.803 214.823 527.282 214.823Z" fill="#282929" fill-rule="nonzero" fill-opacity="1" transform="matrix(1.0017 0 0 1 258.539 194)"/><path d="M527.282 175.771 546.803 175.771 546.803 195.302 527.282 195.302Z" fill="#282929" fill-rule="nonzero" fill-opacity="1" transform="matrix(1.0017 0 0 1 258.539 194)"/><path d="M527.282 156.239 546.803 156.239 546.803 175.771 527.282 175.771Z" fill="#282929" fill-rule="nonzero" fill-opacity="1" transform="matrix(1.0017 0 0 1 258.539 194)"/><path d="M527.282 136.708 546.803 136.708 546.803 156.239 527.282 156.239Z" fill="#282929" fill-rule="nonzero" fill-opacity="1" transform="matrix(1.0017 0 0 1 258.539 194)"/><path d="M527.282 117.177 546.803 117.177 546.803 136.708 527.282 136.708Z" fill="#282929" fill-rule="nonzero" fill-opacity="1" transform="matrix(1.0017 0 0 1 258.539 194)"/><path d="M527.282 97.6559 546.803 97.6559 546.803 117.177 527.282 117.177Z" fill="#282929" fill-rule="nonzero" fill-opacity="1" transform="matrix(1.0017 0 0 1 258.539 194)"/><path d="M527.282 78.1247 546.803 78.1247 546.803 97.6559 527.282 97.6559Z" fill="#282929" fill-rule="nonzero" fill-opacity="1" transform="matrix(1.0017 0 0 1 258.539 194)"/><path d="M527.282 58.5935 546.803 58.5935 546.803 78.1247 527.282 78.1247Z" fill="#020304" fill-rule="nonzero" fill-opacity="1" transform="matrix(1.0017 0 0 1 258.539 194)"/><path d="M527.282 39.0623 546.803 39.0623 546.803 58.5935 527.282 58.5935Z" fill="#282929" fill-rule="nonzero" fill-opacity="1" transform="matrix(1.0017 0 0 1 258.539 194)"/><path d="M527.282 19.5312 546.803 19.5312 546.803 39.0623 527.282 39.0623Z" fill="#020304" fill-rule="nonzero" fill-opacity="1" transform="matrix(1.0017 0 0 1 258.539 194)"/><path d="M507.751 253.885 527.282 253.885 527.282 273.416 507.751 273.416Z" fill="#020304" fill-rule="nonzero" fill-opacity="1" transform="matrix(1.0017 0 0 1 258.539 194)"/><path d="M507.751 234.354 527.282 234.354 527.282 253.885 507.751 253.885Z" fill="#282929" fill-rule="nonzero" fill-opacity="1" transform="matrix(1.0017 0 0 1 258.539 194)"/><path d="M507.751 214.823 527.282 214.823 527.282 234.354 507.751 234.354Z" fill="#282929" fill-rule="nonzero" fill-opacity="1" transform="matrix(1.0017 0 0 1 258.539 194)"/><path d="M507.751 195.302 527.282 195.302 527.282 214.823 507.751 214.823Z" fill="#282929" fill-rule="nonzero" fill-opacity="1" transform="matrix(1.0017 0 0 1 258.539 194)"/><path d="M507.751 175.771 527.282 175.771 527.282 195.302 507.751 195.302Z" fill="#282929" fill-rule="nonzero" fill-opacity="1" transform="matrix(1.0017 0 0 1 258.539 194)"/><path d="M507.751 156.239 527.282 156.239 527.282 175.771 507.751 175.771Z" fill="#282929" fill-rule="nonzero" fill-opacity="1" transform="matrix(1.0017 0 0 1 258.539 194)"/><path d="M507.751 136.708 527.282 136.708 527.282 156.239 507.751 156.239Z" fill="#282929" fill-rule="nonzero" fill-opacity="1" transform="matrix(1.0017 0 0 1 258.539 194)"/><path d="M507.751 117.177 527.282 117.177 527.282 136.708 507.751 136.708Z" fill="#282929" fill-rule="nonzero" fill-opacity="1" transform="matrix(1.0017 0 0 1 258.539 194)"/><path d="M507.751 97.6559 527.282 97.6559 527.282 117.177 507.751 117.177Z" fill="#282929" fill-rule="nonzero" fill-opacity="1" transform="matrix(1.0017 0 0 1 258.539 194)"/><path d="M507.751 78.1247 527.282 78.1247 527.282 97.6559 507.751 97.6559Z" fill="#282929" fill-rule="nonzero" fill-opacity="1" transform="matrix(1.0017 0 0 1 258.539 194)"/><path d="M507.751 58.5935 527.282 58.5935 527.282 78.1247 507.751 78.1247Z" fill="#020304" fill-rule="nonzero" fill-opacity="1" transform="matrix(1.0017 0 0 1 258.539 194)"/><path d="M507.751 39.0623 527.282 39.0623 527.282 58.5935 507.751 58.5935Z" fill="#020304" fill-rule="nonzero" fill-opacity="1" transform="matrix(1.0017 0 0 1 258.539 194)"/><path d="M488.219 253.885 507.751 253.885 507.751 273.416 488.219 273.416Z" fill="#020304" fill-rule="nonzero" fill-opacity="1" transform="matrix(1.0017 0 0 1 258.539 194)"/><path d="M488.219 234.354 507.751 234.354 507.751 253.885 488.219 253.885Z" fill="#282929" fill-rule="nonzero" fill-opacity="1" transform="matrix(1.0017 0 0 1 258.539 194)"/><path d="M488.219 214.823 507.751 214.823 507.751 234.354 488.219 234.354Z" fill="#282929" fill-rule="nonzero" fill-opacity="1" transform="matrix(1.0017 0 0 1 258.539 194)"/><path d="M488.219 195.302 507.751 195.302 507.751 214.823 488.219 214.823Z" fill="#282929" fill-rule="nonzero" fill-opacity="1" transform="matrix(1.0017 0 0 1 258.539 194)"/><path d="M488.219 175.771 507.751 175.771 507.751 195.302 488.219 195.302Z" fill="#282929" fill-rule="nonzero" fill-opacity="1" transform="matrix(1.0017 0 0 1 258.539 194)"/><path d="M488.219 156.239 507.751 156.239 507.751 175.771 488.219 175.771Z" fill="#282929" fill-rule="nonzero" fill-opacity="1" transform="matrix(1.0017 0 0 1 258.539 194)"/><path d="M488.219 136.708 507.751 136.708 507.751 156.239 488.219 156.239Z" fill="#282929" fill-rule="nonzero" fill-opacity="1" transform="matrix(1.0017 0 0 1 258.539 194)"/><path d="M488.219 117.177 507.751 117.177 507.751 136.708 488.219 136.708Z" fill="#282929" fill-rule="nonzero" fill-opacity="1" transform="matrix(1.0017 0 0 1 258.539 194)"/><path d="M488.219 97.6559 507.751 97.6559 507.751 117.177 488.219 117.177Z" fill="#282929" fill-rule="nonzero" fill-opacity="1" transform="matrix(1.0017 0 0 1 258.539 194)"/><path d="M488.219 78.1247 507.751 78.1247 507.751 97.6559 488.219 97.6559Z" fill="#282929" fill-rule="nonzero" fill-opacity="1" transform="matrix(1.0017 0 0 1 258.539 194)"/><path d="M488.219 58.5935 507.751 58.5935 507.751 78.1247 488.219 78.1247Z" fill="#020304" fill-rule="nonzero" fill-opacity="1" transform="matrix(1.0017 0 0 1 258.539 194)"/><path d="M468.688 253.885 488.219 253.885 488.219 273.416 468.688 273.416Z" fill="#020304" fill-rule="nonzero" fill-opacity="1" transform="matrix(1.0017 0 0 1 258.539 194)"/><path d="M468.688 234.354 488.219 234.354 488.219 253.885 468.688 253.885Z" fill="#282929" fill-rule="nonzero" fill-opacity="1" transform="matrix(1.0017 0 0 1 258.539 194)"/><path d="M468.688 214.823 488.219 214.823 488.219 234.354 468.688 234.354Z" fill="#282929" fill-rule="nonzero" fill-opacity="1" transform="matrix(1.0017 0 0 1 258.539 194)"/><path d="M468.688 195.302 488.219 195.302 488.219 214.823 468.688 214.823Z" fill="#282929" fill-rule="nonzero" fill-opacity="1" transform="matrix(1.0017 0 0 1 258.539 194)"/><path d="M468.688 175.771 488.219 175.771 488.219 195.302 468.688 195.302Z" fill="#282929" fill-rule="nonzero" fill-opacity="1" transform="matrix(1.0017 0 0 1 258.539 194)"/><path d="M468.688 156.239 488.219 156.239 488.219 175.771 468.688 175.771Z" fill="#282929" fill-rule="nonzero" fill-opacity="1" transform="matrix(1.0017 0 0 1 258.539 194)"/><path d="M468.688 136.708 488.219 136.708 488.219 156.239 468.688 156.239Z" fill="#282929" fill-rule="nonzero" fill-opacity="1" transform="matrix(1.0017 0 0 1 258.539 194)"/><path d="M468.688 117.177 488.219 117.177 488.219 136.708 468.688 136.708Z" fill="#282929" fill-rule="nonzero" fill-opacity="1" transform="matrix(1.0017 0 0 1 258.539 194)"/><path d="M468.688 97.6559 488.219 97.6559 488.219 117.177 468.688 117.177Z" fill="#282929" fill-rule="nonzero" fill-opacity="1" transform="matrix(1.0017 0 0 1 258.539 194)"/><path d="M468.688 78.1247 488.219 78.1247 488.219 97.6559 468.688 97.6559Z" fill="#282929" fill-rule="nonzero" fill-opacity="1" transform="matrix(1.0017 0 0 1 258.539 194)"/><path d="M468.688 58.5935 488.219 58.5935 488.219 78.1247 468.688 78.1247Z" fill="#020304" fill-rule="nonzero" fill-opacity="1" transform="matrix(1.0017 0 0 1 258.539 194)"/><path d="M449.167 253.885 468.688 253.885 468.688 273.416 449.167 273.416Z" fill="#020304" fill-rule="nonzero" fill-opacity="1" transform="matrix(1.0017 0 0 1 258.539 194)"/><path d="M449.167 234.354 468.688 234.354 468.688 253.885 449.167 253.885Z" fill="#282929" fill-rule="nonzero" fill-opacity="1" transform="matrix(1.0017 0 0 1 258.539 194)"/><path d="M449.167 214.823 468.688 214.823 468.688 234.354 449.167 234.354Z" fill="#282929" fill-rule="nonzero" fill-opacity="1" transform="matrix(1.0017 0 0 1 258.539 194)"/><path d="M449.167 195.302 468.688 195.302 468.688 214.823 449.167 214.823Z" fill="#282929" fill-rule="nonzero" fill-opacity="1" transform="matrix(1.0017 0 0 1 258.539 194)"/><path d="M449.167 175.771 468.688 175.771 468.688 195.302 449.167 195.302Z" fill="#282929" fill-rule="nonzero" fill-opacity="1" transform="matrix(1.0017 0 0 1 258.539 194)"/><path d="M449.167 156.239 468.688 156.239 468.688 175.771 449.167 175.771Z" fill="#282929" fill-rule="nonzero" fill-opacity="1" transform="matrix(1.0017 0 0 1 258.539 194)"/><path d="M449.167 136.708 468.688 136.708 468.688 156.239 449.167 156.239Z" fill="#282929" fill-rule="nonzero" fill-opacity="1" transform="matrix(1.0017 0 0 1 258.539 194)"/><path d="M449.167 117.177 468.688 117.177 468.688 136.708 449.167 136.708Z" fill="#282929" fill-rule="nonzero" fill-opacity="1" transform="matrix(1.0017 0 0 1 258.539 194)"/><path d="M449.167 97.6559 468.688 97.6559 468.688 117.177 449.167 117.177Z" fill="#282929" fill-rule="nonzero" fill-opacity="1" transform="matrix(1.0017 0 0 1 258.539 194)"/><path d="M449.167 78.1247 468.688 78.1247 468.688 97.6559 449.167 97.6559Z" fill="#282929" fill-rule="nonzero" fill-opacity="1" transform="matrix(1.0017 0 0 1 258.539 194)"/><path d="M449.167 58.5935 468.688 58.5935 468.688 78.1247 449.167 78.1247Z" fill="#020304" fill-rule="nonzero" fill-opacity="1" transform="matrix(1.0017 0 0 1 258.539 194)"/><path d="M429.636 253.885 449.167 253.885 449.167 273.416 429.636 273.416Z" fill="#020304" fill-rule="nonzero" fill-opacity="1" transform="matrix(1.0017 0 0 1 258.539 194)"/><path d="M429.636 234.354 449.167 234.354 449.167 253.885 429.636 253.885Z" fill="#282929" fill-rule="nonzero" fill-opacity="1" transform="matrix(1.0017 0 0 1 258.539 194)"/><path d="M429.636 214.823 449.167 214.823 449.167 234.354 429.636 234.354Z" fill="#282929" fill-rule="nonzero" fill-opacity="1" transform="matrix(1.0017 0 0 1 258.539 194)"/><path d="M429.636 195.302 449.167 195.302 449.167 214.823 429.636 214.823Z" fill="#282929" fill-rule="nonzero" fill-opacity="1" transform="matrix(1.0017 0 0 1 258.539 194)"/><path d="M429.636 175.771 449.167 175.771 449.167 195.302 429.636 195.302Z" fill="#282929" fill-rule="nonzero" fill-opacity="1" transform="matrix(1.0017 0 0 1 258.539 194)"/><path d="M429.636 156.239 449.167 156.239 449.167 175.771 429.636 175.771Z" fill="#282929" fill-rule="nonzero" fill-opacity="1" transform="matrix(1.0017 0 0 1 258.539 194)"/><path d="M429.636 136.708 449.167 136.708 449.167 156.239 429.636 156.239Z" fill="#282929" fill-rule="nonzero" fill-opacity="1" transform="matrix(1.0017 0 0 1 258.539 194)"/><path d="M429.636 117.177 449.167 117.177 449.167 136.708 429.636 136.708Z" fill="#282929" fill-rule="nonzero" fill-opacity="1" transform="matrix(1.0017 0 0 1 258.539 194)"/><path d="M429.636 97.6559 449.167 97.6559 449.167 117.177 429.636 117.177Z" fill="#282929" fill-rule="nonzero" fill-opacity="1" transform="matrix(1.0017 0 0 1 258.539 194)"/><path d="M429.636 78.1247 449.167 78.1247 449.167 97.6559 429.636 97.6559Z" fill="#282929" fill-rule="nonzero" fill-opacity="1" transform="matrix(1.0017 0 0 1 258.539 194)"/><path d="M429.636 58.5935 449.167 58.5935 449.167 78.1247 429.636 78.1247Z" fill="#020304" fill-rule="nonzero" fill-opacity="1" transform="matrix(1.0017 0 0 1 258.539 194)"/><path d="M410.105 253.885 429.636 253.885 429.636 273.416 410.105 273.416Z" fill="#020304" fill-rule="nonzero" fill-opacity="1" transform="matrix(1.0017 0 0 1 258.539 194)"/><path d="M410.105 234.354 429.636 234.354 429.636 253.885 410.105 253.885Z" fill="#282929" fill-rule="nonzero" fill-opacity="1" transform="matrix(1.0017 0 0 1 258.539 194)"/><path d="M410.105 214.823 429.636 214.823 429.636 234.354 410.105 234.354Z" fill="#282929" fill-rule="nonzero" fill-opacity="1" transform="matrix(1.0017 0 0 1 258.539 194)"/><path d="M410.105 195.302 429.636 195.302 429.636 214.823 410.105 214.823Z" fill="#282929" fill-rule="nonzero" fill-opacity="1" transform="matrix(1.0017 0 0 1 258.539 194)"/><path d="M410.105 175.771 429.636 175.771 429.636 195.302 410.105 195.302Z" fill="#282929" fill-rule="nonzero" fill-opacity="1" transform="matrix(1.0017 0 0 1 258.539 194)"/><path d="M410.105 156.239 429.636 156.239 429.636 175.771 410.105 175.771Z" fill="#282929" fill-rule="nonzero" fill-opacity="1" transform="matrix(1.0017 0 0 1 258.539 194)"/><path d="M410.105 136.708 429.636 136.708 429.636 156.239 410.105 156.239Z" fill="#282929" fill-rule="nonzero" fill-opacity="1" transform="matrix(1.0017 0 0 1 258.539 194)"/><path d="M410.105 117.177 429.636 117.177 429.636 136.708 410.105 136.708Z" fill="#282929" fill-rule="nonzero" fill-opacity="1" transform="matrix(1.0017 0 0 1 258.539 194)"/><path d="M410.105 97.6559 429.636 97.6559 429.636 117.177 410.105 117.177Z" fill="#282929" fill-rule="nonzero" fill-opacity="1" transform="matrix(1.0017 0 0 1 258.539 194)"/><path d="M410.105 78.1247 429.636 78.1247 429.636 97.6559 410.105 97.6559Z" fill="#282929" fill-rule="nonzero" fill-opacity="1" transform="matrix(1.0017 0 0 1 258.539 194)"/><path d="M410.105 58.5935 429.636 58.5935 429.636 78.1247 410.105 78.1247Z" fill="#020304" fill-rule="nonzero" fill-opacity="1" transform="matrix(1.0017 0 0 1 258.539 194)"/><path d="M390.574 253.885 410.105 253.885 410.105 273.416 390.574 273.416Z" fill="#020304" fill-rule="nonzero" fill-opacity="1" transform="matrix(1.0017 0 0 1 258.539 194)"/><path d="M390.574 234.354 410.105 234.354 410.105 253.885 390.574 253.885Z" fill="#282929" fill-rule="nonzero" fill-opacity="1" transform="matrix(1.0017 0 0 1 258.539 194)"/><path d="M390.574 214.823 410.105 214.823 410.105 234.354 390.574 234.354Z" fill="#282929" fill-rule="nonzero" fill-opacity="1" transform="matrix(1.0017 0 0 1 258.539 194)"/><path d="M390.574 195.302 410.105 195.302 410.105 214.823 390.574 214.823Z" fill="#282929" fill-rule="nonzero" fill-opacity="1" transform="matrix(1.0017 0 0 1 258.539 194)"/><path d="M390.574 175.771 410.105 175.771 410.105 195.302 390.574 195.302Z" fill="#282929" fill-rule="nonzero" fill-opacity="1" transform="matrix(1.0017 0 0 1 258.539 194)"/><path d="M390.574 156.239 410.105 156.239 410.105 175.771 390.574 175.771Z" fill="#282929" fill-rule="nonzero" fill-opacity="1" transform="matrix(1.0017 0 0 1 258.539 194)"/><path d="M390.574 136.708 410.105 136.708 410.105 156.239 390.574 156.239Z" fill="#282929" fill-rule="nonzero" fill-opacity="1" transform="matrix(1.0017 0 0 1 258.539 194)"/><path d="M390.574 117.177 410.105 117.177 410.105 136.708 390.574 136.708Z" fill="#282929" fill-rule="nonzero" fill-opacity="1" transform="matrix(1.0017 0 0 1 258.539 194)"/><path d="M390.574 97.6559 410.105 97.6559 410.105 117.177 390.574 117.177Z" fill="#282929" fill-rule="nonzero" fill-opacity="1" transform="matrix(1.0017 0 0 1 258.539 194)"/><path d="M390.574 78.1247 410.105 78.1247 410.105 97.6559 390.574 97.6559Z" fill="#282929" fill-rule="nonzero" fill-opacity="1" transform="matrix(1.0017 0 0 1 258.539 194)"/><path d="M390.574 58.5935 410.105 58.5935 410.105 78.1247 390.574 78.1247Z" fill="#020304" fill-rule="nonzero" fill-opacity="1" transform="matrix(1.0017 0 0 1 258.539 194)"/><path d="M371.042 253.885 390.574 253.885 390.574 273.416 371.042 273.416Z" fill="#020304" fill-rule="nonzero" fill-opacity="1" transform="matrix(1.0017 0 0 1 258.539 194)"/><path d="M371.042 234.354 390.574 234.354 390.574 253.885 371.042 253.885Z" fill="#282929" fill-rule="nonzero" fill-opacity="1" transform="matrix(1.0017 0 0 1 258.539 194)"/><path d="M371.042 214.823 390.574 214.823 390.574 234.354 371.042 234.354Z" fill="#282929" fill-rule="nonzero" fill-opacity="1" transform="matrix(1.0017 0 0 1 258.539 194)"/><path d="M371.042 195.302 390.574 195.302 390.574 214.823 371.042 214.823Z" fill="#282929" fill-rule="nonzero" fill-opacity="1" transform="matrix(1.0017 0 0 1 258.539 194)"/><path d="M371.042 175.771 390.574 175.771 390.574 195.302 371.042 195.302Z" fill="#282929" fill-rule="nonzero" fill-opacity="1" transform="matrix(1.0017 0 0 1 258.539 194)"/><path d="M371.042 156.239 390.574 156.239 390.574 175.771 371.042 175.771Z" fill="#282929" fill-rule="nonzero" fill-opacity="1" transform="matrix(1.0017 0 0 1 258.539 194)"/><path d="M371.042 136.708 390.574 136.708 390.574 156.239 371.042 156.239Z" fill="#282929" fill-rule="nonzero" fill-opacity="1" transform="matrix(1.0017 0 0 1 258.539 194)"/><path d="M371.042 117.177 390.574 117.177 390.574 136.708 371.042 136.708Z" fill="#282929" fill-rule="nonzero" fill-opacity="1" transform="matrix(1.0017 0 0 1 258.539 194)"/><path d="M371.042 97.6559 390.574 97.6559 390.574 117.177 371.042 117.177Z" fill="#282929" fill-rule="nonzero" fill-opacity="1" transform="matrix(1.0017 0 0 1 258.539 194)"/><path d="M371.042 78.1247 390.574 78.1247 390.574 97.6559 371.042 97.6559Z" fill="#282929" fill-rule="nonzero" fill-opacity="1" transform="matrix(1.0017 0 0 1 258.539 194)"/><path d="M371.042 58.5935 390.574 58.5935 390.574 78.1247 371.042 78.1247Z" fill="#020304" fill-rule="nonzero" fill-opacity="1" transform="matrix(1.0017 0 0 1 258.539 194)"/><path d="M351.521 253.885 371.042 253.885 371.042 273.416 351.521 273.416Z" fill="#020304" fill-rule="nonzero" fill-opacity="1" transform="matrix(1.0017 0 0 1 258.539 194)"/><path d="M351.521 234.354 371.042 234.354 371.042 253.885 351.521 253.885Z" fill="#282929" fill-rule="nonzero" fill-opacity="1" transform="matrix(1.0017 0 0 1 258.539 194)"/><path d="M351.521 214.823 371.042 214.823 371.042 234.354 351.521 234.354Z" fill="#282929" fill-rule="nonzero" fill-opacity="1" transform="matrix(1.0017 0 0 1 258.539 194)"/><path d="M351.521 195.302 371.042 195.302 371.042 214.823 351.521 214.823Z" fill="#282929" fill-rule="nonzero" fill-opacity="1" transform="matrix(1.0017 0 0 1 258.539 194)"/><path d="M351.521 175.771 371.042 175.771 371.042 195.302 351.521 195.302Z" fill="#282929" fill-rule="nonzero" fill-opacity="1" transform="matrix(1.0017 0 0 1 258.539 194)"/><path d="M351.521 156.239 371.042 156.239 371.042 175.771 351.521 175.771Z" fill="#282929" fill-rule="nonzero" fill-opacity="1" transform="matrix(1.0017 0 0 1 258.539 194)"/><path d="M351.521 136.708 371.042 136.708 371.042 156.239 351.521 156.239Z" fill="#282929" fill-rule="nonzero" fill-opacity="1" transform="matrix(1.0017 0 0 1 258.539 194)"/><path d="M351.521 117.177 371.042 117.177 371.042 136.708 351.521 136.708Z" fill="#282929" fill-rule="nonzero" fill-opacity="1" transform="matrix(1.0017 0 0 1 258.539 194)"/><path d="M351.521 97.6559 371.042 97.6559 371.042 117.177 351.521 117.177Z" fill="#282929" fill-rule="nonzero" fill-opacity="1" transform="matrix(1.0017 0 0 1 258.539 194)"/><path d="M351.521 78.1247 371.042 78.1247 371.042 97.6559 351.521 97.6559Z" fill="#282929" fill-rule="nonzero" fill-opacity="1" transform="matrix(1.0017 0 0 1 258.539 194)"/><path d="M351.521 58.5935 371.042 58.5935 371.042 78.1247 351.521 78.1247Z" fill="#020304" fill-rule="nonzero" fill-opacity="1" transform="matrix(1.0017 0 0 1 258.539 194)"/><path d="M331.99 253.885 351.521 253.885 351.521 273.416 331.99 273.416Z" fill="#020304" fill-rule="nonzero" fill-opacity="1" transform="matrix(1.0017 0 0 1 258.539 194)"/><path d="M331.99 234.354 351.521 234.354 351.521 253.885 331.99 253.885Z" fill="#282929" fill-rule="nonzero" fill-opacity="1" transform="matrix(1.0017 0 0 1 258.539 194)"/><path d="M331.99 214.823 351.521 214.823 351.521 234.354 331.99 234.354Z" fill="#282929" fill-rule="nonzero" fill-opacity="1" transform="matrix(1.0017 0 0 1 258.539 194)"/><path d="M331.99 195.302 351.521 195.302 351.521 214.823 331.99 214.823Z" fill="#282929" fill-rule="nonzero" fill-opacity="1" transform="matrix(1.0017 0 0 1 258.539 194)"/><path d="M331.99 175.771 351.521 175.771 351.521 195.302 331.99 195.302Z" fill="#282929" fill-rule="nonzero" fill-opacity="1" transform="matrix(1.0017 0 0 1 258.539 194)"/><path d="M331.99 156.239 351.521 156.239 351.521 175.771 331.99 175.771Z" fill="#282929" fill-rule="nonzero" fill-opacity="1" transform="matrix(1.0017 0 0 1 258.539 194)"/><path d="M331.99 136.708 351.521 136.708 351.521 156.239 331.99 156.239Z" fill="#282929" fill-rule="nonzero" fill-opacity="1" transform="matrix(1.0017 0 0 1 258.539 194)"/><path d="M331.99 117.177 351.521 117.177 351.521 136.708 331.99 136.708Z" fill="#282929" fill-rule="nonzero" fill-opacity="1" transform="matrix(1.0017 0 0 1 258.539 194)"/><path d="M331.99 97.6559 351.521 97.6559 351.521 117.177 331.99 117.177Z" fill="#282929" fill-rule="nonzero" fill-opacity="1" transform="matrix(1.0017 0 0 1 258.539 194)"/><path d="M331.99 78.1247 351.521 78.1247 351.521 97.6559 331.99 97.6559Z" fill="#282929" fill-rule="nonzero" fill-opacity="1" transform="matrix(1.0017 0 0 1 258.539 194)"/><path d="M331.99 58.5935 351.521 58.5935 351.521 78.1247 331.99 78.1247Z" fill="#020304" fill-rule="nonzero" fill-opacity="1" transform="matrix(1.0017 0 0 1 258.539 194)"/><path d="M312.459 253.885 331.99 253.885 331.99 273.416 312.459 273.416Z" fill="#020304" fill-rule="nonzero" fill-opacity="1" transform="matrix(1.0017 0 0 1 258.539 194)"/><path d="M331.99 234.354 331.99 253.885 312.459 253.885 292.928 253.885 273.397 253.885 253.875 253.885 234.344 253.885 214.813 253.885 195.282 253.885 175.761 253.885 156.229 253.885 156.229 234.354 175.761 234.354 195.282 234.354 214.813 234.354 234.344 234.354 253.875 234.354 273.397 234.354 292.928 234.354 312.459 234.354Z" fill="#282929" fill-rule="nonzero" fill-opacity="1" transform="matrix(1.0017 0 0 1 258.539 194)"/><path d="M312.459 214.823 331.99 214.823 331.99 234.354 312.459 234.354Z" fill="#282929" fill-rule="nonzero" fill-opacity="1" transform="matrix(1.0017 0 0 1 258.539 194)"/><path d="M312.459 195.302 331.99 195.302 331.99 214.823 312.459 214.823Z" fill="#282929" fill-rule="nonzero" fill-opacity="1" transform="matrix(1.0017 0 0 1 258.539 194)"/><path d="M312.459 175.771 331.99 175.771 331.99 195.302 312.459 195.302Z" fill="#282929" fill-rule="nonzero" fill-opacity="1" transform="matrix(1.0017 0 0 1 258.539 194)"/><path d="M312.459 156.239 331.99 156.239 331.99 175.771 312.459 175.771Z" fill="#282929" fill-rule="nonzero" fill-opacity="1" transform="matrix(1.0017 0 0 1 258.539 194)"/><path d="M312.459 136.708 331.99 136.708 331.99 156.239 312.459 156.239Z" fill="#282929" fill-rule="nonzero" fill-opacity="1" transform="matrix(1.0017 0 0 1 258.539 194)"/><path d="M312.459 117.177 331.99 117.177 331.99 136.708 312.459 136.708Z" fill="#282929" fill-rule="nonzero" fill-opacity="1" transform="matrix(1.0017 0 0 1 258.539 194)"/><path d="M312.459 97.6559 331.99 97.6559 331.99 117.177 312.459 117.177Z" fill="#282929" fill-rule="nonzero" fill-opacity="1" transform="matrix(1.0017 0 0 1 258.539 194)"/><path d="M312.459 78.1247 331.99 78.1247 331.99 97.6559 312.459 97.6559Z" fill="#282929" fill-rule="nonzero" fill-opacity="1" transform="matrix(1.0017 0 0 1 258.539 194)"/><path d="M312.459 58.5935 331.99 58.5935 331.99 78.1247 312.459 78.1247Z" fill="#020304" fill-rule="nonzero" fill-opacity="1" transform="matrix(1.0017 0 0 1 258.539 194)"/><path d="M292.928 253.885 312.459 253.885 312.459 273.416 292.928 273.416Z" fill="#020304" fill-rule="nonzero" fill-opacity="1" transform="matrix(1.0017 0 0 1 258.539 194)"/><path d="M292.928 214.823 312.459 214.823 312.459 234.354 292.928 234.354Z" fill="#282929" fill-rule="nonzero" fill-opacity="1" transform="matrix(1.0017 0 0 1 258.539 194)"/><path d="M292.928 195.302 312.459 195.302 312.459 214.823 292.928 214.823Z" fill="#282929" fill-rule="nonzero" fill-opacity="1" transform="matrix(1.0017 0 0 1 258.539 194)"/><path d="M292.928 175.771 312.459 175.771 312.459 195.302 292.928 195.302Z" fill="#282929" fill-rule="nonzero" fill-opacity="1" transform="matrix(1.0017 0 0 1 258.539 194)"/><path d="M292.928 156.239 312.459 156.239 312.459 175.771 292.928 175.771Z" fill="#282929" fill-rule="nonzero" fill-opacity="1" transform="matrix(1.0017 0 0 1 258.539 194)"/><path d="M292.928 136.708 312.459 136.708 312.459 156.239 292.928 156.239Z" fill="#282929" fill-rule="nonzero" fill-opacity="1" transform="matrix(1.0017 0 0 1 258.539 194)"/><path d="M292.928 117.177 312.459 117.177 312.459 136.708 292.928 136.708Z" fill="#282929" fill-rule="nonzero" fill-opacity="1" transform="matrix(1.0017 0 0 1 258.539 194)"/><path d="M292.928 97.6559 312.459 97.6559 312.459 117.177 292.928 117.177Z" fill="#282929" fill-rule="nonzero" fill-opacity="1" transform="matrix(1.0017 0 0 1 258.539 194)"/><path d="M292.928 78.1247 312.459 78.1247 312.459 97.6559 292.928 97.6559Z" fill="#282929" fill-rule="nonzero" fill-opacity="1" transform="matrix(1.0017 0 0 1 258.539 194)"/><path d="M292.928 58.5935 312.459 58.5935 312.459 78.1247 292.928 78.1247Z" fill="#020304" fill-rule="nonzero" fill-opacity="1" transform="matrix(1.0017 0 0 1 258.539 194)"/><path d="M273.397 253.885 292.928 253.885 292.928 273.416 273.397 273.416Z" fill="#020304" fill-rule="nonzero" fill-opacity="1" transform="matrix(1.0017 0 0 1 258.539 194)"/><path d="M273.397 214.823 292.928 214.823 292.928 234.354 273.397 234.354Z" fill="#282929" fill-rule="nonzero" fill-opacity="1" transform="matrix(1.0017 0 0 1 258.539 194)"/><path d="M273.397 195.302 292.928 195.302 292.928 214.823 273.397 214.823Z" fill="#282929" fill-rule="nonzero" fill-opacity="1" transform="matrix(1.0017 0 0 1 258.539 194)"/><path d="M273.397 175.771 292.928 175.771 292.928 195.302 273.397 195.302Z" fill="#282929" fill-rule="nonzero" fill-opacity="1" transform="matrix(1.0017 0 0 1 258.539 194)"/><path d="M273.397 156.239 292.928 156.239 292.928 175.771 273.397 175.771Z" fill="#282929" fill-rule="nonzero" fill-opacity="1" transform="matrix(1.0017 0 0 1 258.539 194)"/><path d="M273.397 136.708 292.928 136.708 292.928 156.239 273.397 156.239Z" fill="#282929" fill-rule="nonzero" fill-opacity="1" transform="matrix(1.0017 0 0 1 258.539 194)"/><path d="M273.397 117.177 292.928 117.177 292.928 136.708 273.397 136.708Z" fill="#282929" fill-rule="nonzero" fill-opacity="1" transform="matrix(1.0017 0 0 1 258.539 194)"/><path d="M273.397 97.6559 292.928 97.6559 292.928 117.177 273.397 117.177Z" fill="#282929" fill-rule="nonzero" fill-opacity="1" transform="matrix(1.0017 0 0 1 258.539 194)"/><path d="M273.397 78.1247 292.928 78.1247 292.928 97.6559 273.397 97.6559Z" fill="#282929" fill-rule="nonzero" fill-opacity="1" transform="matrix(1.0017 0 0 1 258.539 194)"/><path d="M273.397 58.5935 292.928 58.5935 292.928 78.1247 273.397 78.1247Z" fill="#020304" fill-rule="nonzero" fill-opacity="1" transform="matrix(1.0017 0 0 1 258.539 194)"/><path d="M253.875 253.885 273.397 253.885 273.397 273.416 253.875 273.416Z" fill="#020304" fill-rule="nonzero" fill-opacity="1" transform="matrix(1.0017 0 0 1 258.539 194)"/><path d="M253.875 214.823 273.397 214.823 273.397 234.354 253.875 234.354Z" fill="#282929" fill-rule="nonzero" fill-opacity="1" transform="matrix(1.0017 0 0 1 258.539 194)"/><path d="M253.875 195.302 273.397 195.302 273.397 214.823 253.875 214.823Z" fill="#282929" fill-rule="nonzero" fill-opacity="1" transform="matrix(1.0017 0 0 1 258.539 194)"/><path d="M253.875 175.771 273.397 175.771 273.397 195.302 253.875 195.302Z" fill="#282929" fill-rule="nonzero" fill-opacity="1" transform="matrix(1.0017 0 0 1 258.539 194)"/><path d="M253.875 156.239 273.397 156.239 273.397 175.771 253.875 175.771Z" fill="#282929" fill-rule="nonzero" fill-opacity="1" transform="matrix(1.0017 0 0 1 258.539 194)"/><path d="M253.875 136.708 273.397 136.708 273.397 156.239 253.875 156.239Z" fill="#282929" fill-rule="nonzero" fill-opacity="1" transform="matrix(1.0017 0 0 1 258.539 194)"/><path d="M253.875 117.177 273.397 117.177 273.397 136.708 253.875 136.708Z" fill="#282929" fill-rule="nonzero" fill-opacity="1" transform="matrix(1.0017 0 0 1 258.539 194)"/><path d="M253.875 97.6559 273.397 97.6559 273.397 117.177 253.875 117.177Z" fill="#282929" fill-rule="nonzero" fill-opacity="1" transform="matrix(1.0017 0 0 1 258.539 194)"/><path d="M253.875 78.1247 273.397 78.1247 273.397 97.6559 253.875 97.6559Z" fill="#282929" fill-rule="nonzero" fill-opacity="1" transform="matrix(1.0017 0 0 1 258.539 194)"/><path d="M253.875 58.5935 273.397 58.5935 273.397 78.1247 253.875 78.1247Z" fill="#020304" fill-rule="nonzero" fill-opacity="1" transform="matrix(1.0017 0 0 1 258.539 194)"/><path d="M234.344 253.885 253.875 253.885 253.875 273.416 234.344 273.416Z" fill="#020304" fill-rule="nonzero" fill-opacity="1" transform="matrix(1.0017 0 0 1 258.539 194)"/><path d="M234.344 214.823 253.875 214.823 253.875 234.354 234.344 234.354Z" fill="#282929" fill-rule="nonzero" fill-opacity="1" transform="matrix(1.0017 0 0 1 258.539 194)"/><path d="M234.344 195.302 253.875 195.302 253.875 214.823 234.344 214.823Z" fill="#282929" fill-rule="nonzero" fill-opacity="1" transform="matrix(1.0017 0 0 1 258.539 194)"/><path d="M234.344 175.771 253.875 175.771 253.875 195.302 234.344 195.302Z" fill="#282929" fill-rule="nonzero" fill-opacity="1" transform="matrix(1.0017 0 0 1 258.539 194)"/><path d="M234.344 156.239 253.875 156.239 253.875 175.771 234.344 175.771Z" fill="#282929" fill-rule="nonzero" fill-opacity="1" transform="matrix(1.0017 0 0 1 258.539 194)"/><path d="M234.344 136.708 253.875 136.708 253.875 156.239 234.344 156.239Z" fill="#282929" fill-rule="nonzero" fill-opacity="1" transform="matrix(1.0017 0 0 1 258.539 194)"/><path d="M234.344 117.177 253.875 117.177 253.875 136.708 234.344 136.708Z" fill="#282929" fill-rule="nonzero" fill-opacity="1" transform="matrix(1.0017 0 0 1 258.539 194)"/><path d="M234.344 97.6559 253.875 97.6559 253.875 117.177 234.344 117.177Z" fill="#282929" fill-rule="nonzero" fill-opacity="1" transform="matrix(1.0017 0 0 1 258.539 194)"/><path d="M234.344 78.1247 253.875 78.1247 253.875 97.6559 234.344 97.6559Z" fill="#282929" fill-rule="nonzero" fill-opacity="1" transform="matrix(1.0017 0 0 1 258.539 194)"/><path d="M234.344 58.5935 253.875 58.5935 253.875 78.1247 234.344 78.1247Z" fill="#020304" fill-rule="nonzero" fill-opacity="1" transform="matrix(1.0017 0 0 1 258.539 194)"/><path d="M234.344 39.0623 253.875 39.0623 253.875 58.5935 234.344 58.5935Z" fill="#020304" fill-rule="nonzero" fill-opacity="1" transform="matrix(1.0017 0 0 1 258.539 194)"/><path d="M214.813 253.885 234.344 253.885 234.344 273.416 214.813 273.416Z" fill="#020304" fill-rule="nonzero" fill-opacity="1" transform="matrix(1.0017 0 0 1 258.539 194)"/><path d="M214.813 214.823 234.344 214.823 234.344 234.354 214.813 234.354Z" fill="#282929" fill-rule="nonzero" fill-opacity="1" transform="matrix(1.0017 0 0 1 258.539 194)"/><path d="M214.813 195.302 234.344 195.302 234.344 214.823 214.813 214.823Z" fill="#282929" fill-rule="nonzero" fill-opacity="1" transform="matrix(1.0017 0 0 1 258.539 194)"/><path d="M214.813 175.771 234.344 175.771 234.344 195.302 214.813 195.302Z" fill="#282929" fill-rule="nonzero" fill-opacity="1" transform="matrix(1.0017 0 0 1 258.539 194)"/><path d="M214.813 156.239 234.344 156.239 234.344 175.771 214.813 175.771Z" fill="#282929" fill-rule="nonzero" fill-opacity="1" transform="matrix(1.0017 0 0 1 258.539 194)"/><path d="M214.813 136.708 234.344 136.708 234.344 156.239 214.813 156.239Z" fill="#282929" fill-rule="nonzero" fill-opacity="1" transform="matrix(1.0017 0 0 1 258.539 194)"/><path d="M214.813 117.177 234.344 117.177 234.344 136.708 214.813 136.708Z" fill="#282929" fill-rule="nonzero" fill-opacity="1" transform="matrix(1.0017 0 0 1 258.539 194)"/><path d="M214.813 97.6559 234.344 97.6559 234.344 117.177 214.813 117.177Z" fill="#282929" fill-rule="nonzero" fill-opacity="1" transform="matrix(1.0017 0 0 1 258.539 194)"/><path d="M214.813 78.1247 234.344 78.1247 234.344 97.6559 214.813 97.6559Z" fill="#282929" fill-rule="nonzero" fill-opacity="1" transform="matrix(1.0017 0 0 1 258.539 194)"/><path d="M214.813 58.5935 234.344 58.5935 234.344 78.1247 214.813 78.1247Z" fill="#020304" fill-rule="nonzero" fill-opacity="1" transform="matrix(1.0017 0 0 1 258.539 194)"/><path d="M214.813 39.0623 234.344 39.0623 234.344 58.5935 214.813 58.5935Z" fill="#282929" fill-rule="nonzero" fill-opacity="1" transform="matrix(1.0017 0 0 1 258.539 194)"/><path d="M214.813 19.5312 234.344 19.5312 234.344 39.0623 214.813 39.0623Z" fill="#020304" fill-rule="nonzero" fill-opacity="1" transform="matrix(1.0017 0 0 1 258.539 194)"/><path d="M195.282 253.885 214.813 253.885 214.813 273.416 195.282 273.416Z" fill="#020304" fill-rule="nonzero" fill-opacity="1" transform="matrix(1.0017 0 0 1 258.539 194)"/><path d="M195.282 214.823 214.813 214.823 214.813 234.354 195.282 234.354Z" fill="#282929" fill-rule="nonzero" fill-opacity="1" transform="matrix(1.0017 0 0 1 258.539 194)"/><path d="M195.282 195.302 214.813 195.302 214.813 214.823 195.282 214.823Z" fill="#282929" fill-rule="nonzero" fill-opacity="1" transform="matrix(1.0017 0 0 1 258.539 194)"/><path d="M195.282 175.771 214.813 175.771 214.813 195.302 195.282 195.302Z" fill="#282929" fill-rule="nonzero" fill-opacity="1" transform="matrix(1.0017 0 0 1 258.539 194)"/><path d="M195.282 156.239 214.813 156.239 214.813 175.771 195.282 175.771Z" fill="#282929" fill-rule="nonzero" fill-opacity="1" transform="matrix(1.0017 0 0 1 258.539 194)"/><path d="M195.282 136.708 214.813 136.708 214.813 156.239 195.282 156.239Z" fill="#282929" fill-rule="nonzero" fill-opacity="1" transform="matrix(1.0017 0 0 1 258.539 194)"/><path d="M195.282 117.177 214.813 117.177 214.813 136.708 195.282 136.708Z" fill="#282929" fill-rule="nonzero" fill-opacity="1" transform="matrix(1.0017 0 0 1 258.539 194)"/><path d="M195.282 97.6559 214.813 97.6559 214.813 117.177 195.282 117.177Z" fill="#282929" fill-rule="nonzero" fill-opacity="1" transform="matrix(1.0017 0 0 1 258.539 194)"/><path d="M195.282 78.1247 214.813 78.1247 214.813 97.6559 195.282 97.6559Z" fill="#282929" fill-rule="nonzero" fill-opacity="1" transform="matrix(1.0017 0 0 1 258.539 194)"/><path d="M195.282 58.5935 214.813 58.5935 214.813 78.1247 195.282 78.1247Z" fill="#020304" fill-rule="nonzero" fill-opacity="1" transform="matrix(1.0017 0 0 1 258.539 194)"/><path d="M195.282 39.0623 214.813 39.0623 214.813 58.5935 195.282 58.5935Z" fill="#282929" fill-rule="nonzero" fill-opacity="1" transform="matrix(1.0017 0 0 1 258.539 194)"/><path d="M195.282 19.5312 214.813 19.5312 214.813 39.0623 195.282 39.0623Z" fill="#282929" fill-rule="nonzero" fill-opacity="1" transform="matrix(1.0017 0 0 1 258.539 194)"/><path d="M195.282 0.0099598 214.813 0.0099598 214.813 19.5312 195.282 19.5312Z" fill="#020304" fill-rule="nonzero" fill-opacity="1" transform="matrix(1.0017 0 0 1 258.539 194)"/><path d="M175.761 253.885 195.282 253.885 195.282 273.416 175.761 273.416Z" fill="#020304" fill-rule="nonzero" fill-opacity="1" transform="matrix(1.0017 0 0 1 258.539 194)"/><path d="M175.761 214.823 195.282 214.823 195.282 234.354 175.761 234.354Z" fill="#282929" fill-rule="nonzero" fill-opacity="1" transform="matrix(1.0017 0 0 1 258.539 194)"/><path d="M175.761 195.302 195.282 195.302 195.282 214.823 175.761 214.823Z" fill="#282929" fill-rule="nonzero" fill-opacity="1" transform="matrix(1.0017 0 0 1 258.539 194)"/><path d="M175.761 175.771 195.282 175.771 195.282 195.302 175.761 195.302Z" fill="#282929" fill-rule="nonzero" fill-opacity="1" transform="matrix(1.0017 0 0 1 258.539 194)"/><path d="M175.761 156.239 195.282 156.239 195.282 175.771 175.761 175.771Z" fill="#282929" fill-rule="nonzero" fill-opacity="1" transform="matrix(1.0017 0 0 1 258.539 194)"/><path d="M175.761 136.708 195.282 136.708 195.282 156.239 175.761 156.239Z" fill="#282929" fill-rule="nonzero" fill-opacity="1" transform="matrix(1.0017 0 0 1 258.539 194)"/><path d="M175.761 117.177 195.282 117.177 195.282 136.708 175.761 136.708Z" fill="#282929" fill-rule="nonzero" fill-opacity="1" transform="matrix(1.0017 0 0 1 258.539 194)"/><path d="M175.761 97.6559 195.282 97.6559 195.282 117.177 175.761 117.177Z" fill="#282929" fill-rule="nonzero" fill-opacity="1" transform="matrix(1.0017 0 0 1 258.539 194)"/><path d="M175.761 78.1247 195.282 78.1247 195.282 97.6559 175.761 97.6559Z" fill="#282929" fill-rule="nonzero" fill-opacity="1" transform="matrix(1.0017 0 0 1 258.539 194)"/><path d="M175.761 58.5935 195.282 58.5935 195.282 78.1247 175.761 78.1247Z" fill="#282929" fill-rule="nonzero" fill-opacity="1" transform="matrix(1.0017 0 0 1 258.539 194)"/><path d="M175.761 39.0623 195.282 39.0623 195.282 58.5935 175.761 58.5935Z" fill="#282929" fill-rule="nonzero" fill-opacity="1" transform="matrix(1.0017 0 0 1 258.539 194)"/><path d="M175.761 19.5312 195.282 19.5312 195.282 39.0623 175.761 39.0623Z" fill="#282929" fill-rule="nonzero" fill-opacity="1" transform="matrix(1.0017 0 0 1 258.539 194)"/><path d="M175.761 0.0099598 195.282 0.0099598 195.282 19.5312 175.761 19.5312Z" fill="#020304" fill-rule="nonzero" fill-opacity="1" transform="matrix(1.0017 0 0 1 258.539 194)"/><path d="M156.229 253.885 175.761 253.885 175.761 273.416 156.229 273.416Z" fill="#020304" fill-rule="nonzero" fill-opacity="1" transform="matrix(1.0017 0 0 1 258.539 194)"/><path d="M156.229 214.823 175.761 214.823 175.761 234.354 156.229 234.354Z" fill="#282929" fill-rule="nonzero" fill-opacity="1" transform="matrix(1.0017 0 0 1 258.539 194)"/><path d="M156.229 195.302 175.761 195.302 175.761 214.823 156.229 214.823Z" fill="#282929" fill-rule="nonzero" fill-opacity="1" transform="matrix(1.0017 0 0 1 258.539 194)"/><path d="M156.229 175.771 175.761 175.771 175.761 195.302 156.229 195.302Z" fill="#282929" fill-rule="nonzero" fill-opacity="1" transform="matrix(1.0017 0 0 1 258.539 194)"/><path d="M156.229 156.239 175.761 156.239 175.761 175.771 156.229 175.771Z" fill="#282929" fill-rule="nonzero" fill-opacity="1" transform="matrix(1.0017 0 0 1 258.539 194)"/><path d="M156.229 136.708 175.761 136.708 175.761 156.239 156.229 156.239Z" fill="#282929" fill-rule="nonzero" fill-opacity="1" transform="matrix(1.0017 0 0 1 258.539 194)"/><path d="M156.229 117.177 175.761 117.177 175.761 136.708 156.229 136.708Z" fill="#282929" fill-rule="nonzero" fill-opacity="1" transform="matrix(1.0017 0 0 1 258.539 194)"/><path d="M156.229 97.6559 175.761 97.6559 175.761 117.177 156.229 117.177Z" fill="#282929" fill-rule="nonzero" fill-opacity="1" transform="matrix(1.0017 0 0 1 258.539 194)"/><path d="M156.229 78.1247 175.761 78.1247 175.761 97.6559 156.229 97.6559Z" fill="#282929" fill-rule="nonzero" fill-opacity="1" transform="matrix(1.0017 0 0 1 258.539 194)"/><path d="M156.229 58.5935 175.761 58.5935 175.761 78.1247 156.229 78.1247Z" fill="#020304" fill-rule="nonzero" fill-opacity="1" transform="matrix(1.0017 0 0 1 258.539 194)"/><path d="M156.229 39.0623 175.761 39.0623 175.761 58.5935 156.229 58.5935Z" fill="#282929" fill-rule="nonzero" fill-opacity="1" transform="matrix(1.0017 0 0 1 258.539 194)"/><path d="M156.229 19.5312 175.761 19.5312 175.761 39.0623 156.229 39.0623Z" fill="#282929" fill-rule="nonzero" fill-opacity="1" transform="matrix(1.0017 0 0 1 258.539 194)"/><path d="M156.229 0.0099598 175.761 0.0099598 175.761 19.5312 156.229 19.5312Z" fill="#020304" fill-rule="nonzero" fill-opacity="1" transform="matrix(1.0017 0 0 1 258.539 194)"/><path d="M136.698 253.885 156.229 253.885 156.229 273.416 136.698 273.416Z" fill="#020304" fill-rule="nonzero" fill-opacity="1" transform="matrix(1.0017 0 0 1 258.539 194)"/><path d="M136.698 234.354 156.229 234.354 156.229 253.885 136.698 253.885Z" fill="#282929" fill-rule="nonzero" fill-opacity="1" transform="matrix(1.0017 0 0 1 258.539 194)"/><path d="M136.698 214.823 156.229 214.823 156.229 234.354 136.698 234.354Z" fill="#282929" fill-rule="nonzero" fill-opacity="1" transform="matrix(1.0017 0 0 1 258.539 194)"/><path d="M136.698 195.302 156.229 195.302 156.229 214.823 136.698 214.823Z" fill="#282929" fill-rule="nonzero" fill-opacity="1" transform="matrix(1.0017 0 0 1 258.539 194)"/><path d="M136.698 175.771 156.229 175.771 156.229 195.302 136.698 195.302Z" fill="#282929" fill-rule="nonzero" fill-opacity="1" transform="matrix(1.0017 0 0 1 258.539 194)"/><path d="M136.698 156.239 156.229 156.239 156.229 175.771 136.698 175.771Z" fill="#282929" fill-rule="nonzero" fill-opacity="1" transform="matrix(1.0017 0 0 1 258.539 194)"/><path d="M136.698 136.708 156.229 136.708 156.229 156.239 136.698 156.239Z" fill="#282929" fill-rule="nonzero" fill-opacity="1" transform="matrix(1.0017 0 0 1 258.539 194)"/><path d="M136.698 117.177 156.229 117.177 156.229 136.708 136.698 136.708Z" fill="#282929" fill-rule="nonzero" fill-opacity="1" transform="matrix(1.0017 0 0 1 258.539 194)"/><path d="M136.698 97.6559 156.229 97.6559 156.229 117.177 136.698 117.177Z" fill="#282929" fill-rule="nonzero" fill-opacity="1" transform="matrix(1.0017 0 0 1 258.539 194)"/><path d="M136.698 78.1247 156.229 78.1247 156.229 97.6559 136.698 97.6559Z" fill="#282929" fill-rule="nonzero" fill-opacity="1" transform="matrix(1.0017 0 0 1 258.539 194)"/><path d="M136.698 58.5935 156.229 58.5935 156.229 78.1247 136.698 78.1247Z" fill="#020304" fill-rule="nonzero" fill-opacity="1" transform="matrix(1.0017 0 0 1 258.539 194)"/><path d="M136.698 39.0623 156.229 39.0623 156.229 58.5935 136.698 58.5935Z" fill="#282929" fill-rule="nonzero" fill-opacity="1" transform="matrix(1.0017 0 0 1 258.539 194)"/><path d="M136.698 19.5312 156.229 19.5312 156.229 39.0623 136.698 39.0623Z" fill="#020304" fill-rule="nonzero" fill-opacity="1" transform="matrix(1.0017 0 0 1 258.539 194)"/><path d="M117.167 273.416 136.698 273.416 136.698 292.938 117.167 292.938Z" fill="#020304" fill-rule="nonzero" fill-opacity="1" transform="matrix(1.0017 0 0 1 258.539 194)"/><path d="M117.167 253.885 136.698 253.885 136.698 273.416 117.167 273.416Z" fill="#282929" fill-rule="nonzero" fill-opacity="1" transform="matrix(1.0017 0 0 1 258.539 194)"/><path d="M117.167 234.354 136.698 234.354 136.698 253.885 117.167 253.885Z" fill="#282929" fill-rule="nonzero" fill-opacity="1" transform="matrix(1.0017 0 0 1 258.539 194)"/><path d="M117.167 214.823 136.698 214.823 136.698 234.354 117.167 234.354Z" fill="#282929" fill-rule="nonzero" fill-opacity="1" transform="matrix(1.0017 0 0 1 258.539 194)"/><path d="M117.167 195.302 136.698 195.302 136.698 214.823 117.167 214.823Z" fill="#282929" fill-rule="nonzero" fill-opacity="1" transform="matrix(1.0017 0 0 1 258.539 194)"/><path d="M117.167 175.771 136.698 175.771 136.698 195.302 117.167 195.302Z" fill="#282929" fill-rule="nonzero" fill-opacity="1" transform="matrix(1.0017 0 0 1 258.539 194)"/><path d="M117.167 156.239 136.698 156.239 136.698 175.771 117.167 175.771Z" fill="#282929" fill-rule="nonzero" fill-opacity="1" transform="matrix(1.0017 0 0 1 258.539 194)"/><path d="M117.167 136.708 136.698 136.708 136.698 156.239 117.167 156.239Z" fill="#282929" fill-rule="nonzero" fill-opacity="1" transform="matrix(1.0017 0 0 1 258.539 194)"/><path d="M117.167 117.177 136.698 117.177 136.698 136.708 117.167 136.708Z" fill="#282929" fill-rule="nonzero" fill-opacity="1" transform="matrix(1.0017 0 0 1 258.539 194)"/><path d="M117.167 97.6559 136.698 97.6559 136.698 117.177 117.167 117.177Z" fill="#282929" fill-rule="nonzero" fill-opacity="1" transform="matrix(1.0017 0 0 1 258.539 194)"/><path d="M117.167 78.1247 136.698 78.1247 136.698 97.6559 117.167 97.6559Z" fill="#282929" fill-rule="nonzero" fill-opacity="1" transform="matrix(1.0017 0 0 1 258.539 194)"/><path d="M117.167 58.5935 136.698 58.5935 136.698 78.1247 117.167 78.1247Z" fill="#020304" fill-rule="nonzero" fill-opacity="1" transform="matrix(1.0017 0 0 1 258.539 194)"/><path d="M117.167 39.0623 136.698 39.0623 136.698 58.5935 117.167 58.5935Z" fill="#020304" fill-rule="nonzero" fill-opacity="1" transform="matrix(1.0017 0 0 1 258.539 194)"/><path d="M97.6359 292.938 117.167 292.938 117.167 312.469 97.6359 312.469Z" fill="#020304" fill-rule="nonzero" fill-opacity="1" transform="matrix(1.0017 0 0 1 258.539 194)"/><path d="M97.6359 273.416 117.167 273.416 117.167 292.938 97.6359 292.938Z" fill="#282929" fill-rule="nonzero" fill-opacity="1" transform="matrix(1.0017 0 0 1 258.539 194)"/><path d="M97.6359 253.885 117.167 253.885 117.167 273.416 97.6359 273.416Z" fill="#282929" fill-rule="nonzero" fill-opacity="1" transform="matrix(1.0017 0 0 1 258.539 194)"/><path d="M97.6359 234.354 117.167 234.354 117.167 253.885 97.6359 253.885Z" fill="#282929" fill-rule="nonzero" fill-opacity="1" transform="matrix(1.0017 0 0 1 258.539 194)"/><path d="M97.6359 214.823 117.167 214.823 117.167 234.354 97.6359 234.354Z" fill="#282929" fill-rule="nonzero" fill-opacity="1" transform="matrix(1.0017 0 0 1 258.539 194)"/><path d="M97.6359 195.302 117.167 195.302 117.167 214.823 97.6359 214.823Z" fill="#282929" fill-rule="nonzero" fill-opacity="1" transform="matrix(1.0017 0 0 1 258.539 194)"/><path d="M97.6359 175.771 117.167 175.771 117.167 195.302 97.6359 195.302Z" fill="#282929" fill-rule="nonzero" fill-opacity="1" transform="matrix(1.0017 0 0 1 258.539 194)"/><path d="M97.6359 156.239 117.167 156.239 117.167 175.771 97.6359 175.771Z" fill="#282929" fill-rule="nonzero" fill-opacity="1" transform="matrix(1.0017 0 0 1 258.539 194)"/><path d="M97.6359 136.708 117.167 136.708 117.167 156.239 97.6359 156.239Z" fill="#282929" fill-rule="nonzero" fill-opacity="1" transform="matrix(1.0017 0 0 1 258.539 194)"/><path d="M97.6359 117.177 117.167 117.177 117.167 136.708 97.6359 136.708Z" fill="#282929" fill-rule="nonzero" fill-opacity="1" transform="matrix(1.0017 0 0 1 258.539 194)"/><path d="M97.6359 97.6559 117.167 97.6559 117.167 117.177 97.6359 117.177Z" fill="#282929" fill-rule="nonzero" fill-opacity="1" transform="matrix(1.0017 0 0 1 258.539 194)"/><path d="M97.6359 78.1247 117.167 78.1247 117.167 97.6559 97.6359 97.6559Z" fill="#020304" fill-rule="nonzero" fill-opacity="1" transform="matrix(1.0017 0 0 1 258.539 194)"/><path d="M78.1147 312.469 97.6359 312.469 97.6359 332 78.1147 332Z" fill="#020304" fill-rule="nonzero" fill-opacity="1" transform="matrix(1.0017 0 0 1 258.539 194)"/><path d="M78.1147 292.938 97.6359 292.938 97.6359 312.469 78.1147 312.469Z" fill="#282929" fill-rule="nonzero" fill-opacity="1" transform="matrix(1.0017 0 0 1 258.539 194)"/><path d="M78.1147 273.416 97.6359 273.416 97.6359 292.938 78.1147 292.938Z" fill="#282929" fill-rule="nonzero" fill-opacity="1" transform="matrix(1.0017 0 0 1 258.539 194)"/><path d="M78.1147 253.885 97.6359 253.885 97.6359 273.416 78.1147 273.416Z" fill="#282929" fill-rule="nonzero" fill-opacity="1" transform="matrix(1.0017 0 0 1 258.539 194)"/><path d="M78.1147 234.354 97.6359 234.354 97.6359 253.885 78.1147 253.885Z" fill="#282929" fill-rule="nonzero" fill-opacity="1" transform="matrix(1.0017 0 0 1 258.539 194)"/><path d="M78.1147 214.823 97.6359 214.823 97.6359 234.354 78.1147 234.354Z" fill="#282929" fill-rule="nonzero" fill-opacity="1" transform="matrix(1.0017 0 0 1 258.539 194)"/><path d="M78.1147 195.302 97.6359 195.302 97.6359 214.823 78.1147 214.823Z" fill="#282929" fill-rule="nonzero" fill-opacity="1" transform="matrix(1.0017 0 0 1 258.539 194)"/><path d="M78.1147 175.771 97.6359 175.771 97.6359 195.302 78.1147 195.302Z" fill="#282929" fill-rule="nonzero" fill-opacity="1" transform="matrix(1.0017 0 0 1 258.539 194)"/><path d="M78.1147 156.239 97.6359 156.239 97.6359 175.771 78.1147 175.771Z" fill="#282929" fill-rule="nonzero" fill-opacity="1" transform="matrix(1.0017 0 0 1 258.539 194)"/><path d="M78.1147 136.708 97.6359 136.708 97.6359 156.239 78.1147 156.239Z" fill="#282929" fill-rule="nonzero" fill-opacity="1" transform="matrix(1.0017 0 0 1 258.539 194)"/><path d="M78.1147 117.177 97.6359 117.177 97.6359 136.708 78.1147 136.708Z" fill="#282929" fill-rule="nonzero" fill-opacity="1" transform="matrix(1.0017 0 0 1 258.539 194)"/><path d="M78.1147 97.6559 97.6359 97.6559 97.6359 117.177 78.1147 117.177Z" fill="#282929" fill-rule="nonzero" fill-opacity="1" transform="matrix(1.0017 0 0 1 258.539 194)"/><path d="M78.1147 78.1247 97.6359 78.1247 97.6359 97.6559 78.1147 97.6559Z" fill="#020304" fill-rule="nonzero" fill-opacity="1" transform="matrix(1.0017 0 0 1 258.539 194)"/><path d="M58.5835 292.938 78.1147 292.938 78.1147 312.469 58.5835 312.469Z" fill="#020304" fill-rule="nonzero" fill-opacity="1" transform="matrix(1.0017 0 0 1 258.539 194)"/><path d="M58.5835 273.416 78.1147 273.416 78.1147 292.938 58.5835 292.938Z" fill="#282929" fill-rule="nonzero" fill-opacity="1" transform="matrix(1.0017 0 0 1 258.539 194)"/><path d="M58.5835 253.885 78.1147 253.885 78.1147 273.416 58.5835 273.416Z" fill="#282929" fill-rule="nonzero" fill-opacity="1" transform="matrix(1.0017 0 0 1 258.539 194)"/><path d="M58.5835 234.354 78.1147 234.354 78.1147 253.885 58.5835 253.885Z" fill="#282929" fill-rule="nonzero" fill-opacity="1" transform="matrix(1.0017 0 0 1 258.539 194)"/><path d="M58.5835 214.823 78.1147 214.823 78.1147 234.354 58.5835 234.354Z" fill="#282929" fill-rule="nonzero" fill-opacity="1" transform="matrix(1.0017 0 0 1 258.539 194)"/><path d="M58.5835 195.302 78.1147 195.302 78.1147 214.823 58.5835 214.823Z" fill="#282929" fill-rule="nonzero" fill-opacity="1" transform="matrix(1.0017 0 0 1 258.539 194)"/><path d="M58.5835 175.771 78.1147 175.771 78.1147 195.302 58.5835 195.302Z" fill="#282929" fill-rule="nonzero" fill-opacity="1" transform="matrix(1.0017 0 0 1 258.539 194)"/><path d="M58.5835 156.239 78.1147 156.239 78.1147 175.771 58.5835 175.771Z" fill="#282929" fill-rule="nonzero" fill-opacity="1" transform="matrix(1.0017 0 0 1 258.539 194)"/><path d="M58.5835 136.708 78.1147 136.708 78.1147 156.239 58.5835 156.239Z" fill="#282929" fill-rule="nonzero" fill-opacity="1" transform="matrix(1.0017 0 0 1 258.539 194)"/><path d="M58.5835 117.177 78.1147 117.177 78.1147 136.708 58.5835 136.708Z" fill="#282929" fill-rule="nonzero" fill-opacity="1" transform="matrix(1.0017 0 0 1 258.539 194)"/><path d="M58.5835 97.6559 78.1147 97.6559 78.1147 117.177 58.5835 117.177Z" fill="#282929" fill-rule="nonzero" fill-opacity="1" transform="matrix(1.0017 0 0 1 258.539 194)"/><path d="M58.5835 78.1247 78.1147 78.1247 78.1147 97.6559 58.5835 97.6559Z" fill="#020304" fill-rule="nonzero" fill-opacity="1" transform="matrix(1.0017 0 0 1 258.539 194)"/><path d="M39.0524 273.416 58.5835 273.416 58.5835 292.938 39.0524 292.938Z" fill="#020304" fill-rule="nonzero" fill-opacity="1" transform="matrix(1.0017 0 0 1 258.539 194)"/><path d="M39.0524 253.885 58.5835 253.885 58.5835 273.416 39.0524 273.416Z" fill="#282929" fill-rule="nonzero" fill-opacity="1" transform="matrix(1.0017 0 0 1 258.539 194)"/><path d="M39.0524 234.354 58.5835 234.354 58.5835 253.885 39.0524 253.885Z" fill="#282929" fill-rule="nonzero" fill-opacity="1" transform="matrix(1.0017 0 0 1 258.539 194)"/><path d="M39.0524 214.823 58.5835 214.823 58.5835 234.354 39.0524 234.354Z" fill="#282929" fill-rule="nonzero" fill-opacity="1" transform="matrix(1.0017 0 0 1 258.539 194)"/><path d="M39.0524 195.302 58.5835 195.302 58.5835 214.823 39.0524 214.823Z" fill="#282929" fill-rule="nonzero" fill-opacity="1" transform="matrix(1.0017 0 0 1 258.539 194)"/><path d="M39.0524 175.771 58.5835 175.771 58.5835 195.302 39.0524 195.302Z" fill="#282929" fill-rule="nonzero" fill-opacity="1" transform="matrix(1.0017 0 0 1 258.539 194)"/><path d="M39.0524 156.239 58.5835 156.239 58.5835 175.771 39.0524 175.771Z" fill="#282929" fill-rule="nonzero" fill-opacity="1" transform="matrix(1.0017 0 0 1 258.539 194)"/><path d="M39.0524 136.708 58.5835 136.708 58.5835 156.239 39.0524 156.239Z" fill="#282929" fill-rule="nonzero" fill-opacity="1" transform="matrix(1.0017 0 0 1 258.539 194)"/><path d="M39.0524 117.177 58.5835 117.177 58.5835 136.708 39.0524 136.708Z" fill="#282929" fill-rule="nonzero" fill-opacity="1" transform="matrix(1.0017 0 0 1 258.539 194)"/><path d="M39.0524 97.6559 58.5835 97.6559 58.5835 117.177 39.0524 117.177Z" fill="#020304" fill-rule="nonzero" fill-opacity="1" transform="matrix(1.0017 0 0 1 258.539 194)"/><path d="M19.5212 253.885 39.0524 253.885 39.0524 273.416 19.5212 273.416Z" fill="#020304" fill-rule="nonzero" fill-opacity="1" transform="matrix(1.0017 0 0 1 258.539 194)"/><path d="M19.5212 234.354 39.0524 234.354 39.0524 253.885 19.5212 253.885Z" fill="#020304" fill-rule="nonzero" fill-opacity="1" transform="matrix(1.0017 0 0 1 258.539 194)"/><path d="M19.5212 214.823 39.0524 214.823 39.0524 234.354 19.5212 234.354Z" fill="#282929" fill-rule="nonzero" fill-opacity="1" transform="matrix(1.0017 0 0 1 258.539 194)"/><path d="M19.5212 195.302 39.0524 195.302 39.0524 214.823 19.5212 214.823Z" fill="#282929" fill-rule="nonzero" fill-opacity="1" transform="matrix(1.0017 0 0 1 258.539 194)"/><path d="M19.5212 175.771 39.0524 175.771 39.0524 195.302 19.5212 195.302Z" fill="#282929" fill-rule="nonzero" fill-opacity="1" transform="matrix(1.0017 0 0 1 258.539 194)"/><path d="M19.5212 156.239 39.0524 156.239 39.0524 175.771 19.5212 175.771Z" fill="#282929" fill-rule="nonzero" fill-opacity="1" transform="matrix(1.0017 0 0 1 258.539 194)"/><path d="M19.5212 136.708 39.0524 136.708 39.0524 156.239 19.5212 156.239Z" fill="#282929" fill-rule="nonzero" fill-opacity="1" transform="matrix(1.0017 0 0 1 258.539 194)"/><path d="M19.5212 117.177 39.0524 117.177 39.0524 136.708 19.5212 136.708Z" fill="#282929" fill-rule="nonzero" fill-opacity="1" transform="matrix(1.0017 0 0 1 258.539 194)"/><path d="M19.5212 97.6559 39.0524 97.6559 39.0524 117.177 19.5212 117.177Z" fill="#020304" fill-rule="nonzero" fill-opacity="1" transform="matrix(1.0017 0 0 1 258.539 194)"/><path d="M0 214.823 19.5212 214.823 19.5212 234.354 3.79936e-07 234.354Z" fill="#020304" fill-rule="nonzero" fill-opacity="1" transform="matrix(1.0017 0 0 1 258.539 194)"/><path d="M0 195.302 19.5212 195.302 19.5212 214.823 3.79936e-07 214.823Z" fill="#020304" fill-rule="nonzero" fill-opacity="1" transform="matrix(1.0017 0 0 1 258.539 194)"/><path d="M0 175.771 19.5212 175.771 19.5212 195.302 3.79936e-07 195.302Z" fill="#020304" fill-rule="nonzero" fill-opacity="1" transform="matrix(1.0017 0 0 1 258.539 194)"/><path d="M0 156.239 19.5212 156.239 19.5212 175.771 3.79936e-07 175.771Z" fill="#020304" fill-rule="nonzero" fill-opacity="1" transform="matrix(1.0017 0 0 1 258.539 194)"/><path d="M0 136.708 19.5212 136.708 19.5212 156.239 3.79936e-07 156.239Z" fill="#020304" fill-rule="nonzero" fill-opacity="1" transform="matrix(1.0017 0 0 1 258.539 194)"/><path d="M0 117.177 19.5212 117.177 19.5212 136.708 3.79936e-07 136.708Z" fill="#020304" fill-rule="nonzero" fill-opacity="1" transform="matrix(1.0017 0 0 1 258.539 194)"/><path d="M64.1212 156.04C75.3658 151.409 86.71 147.017 98.1439 142.873 106.699 166.508 115.245 190.143 123.8 213.777 120.683 214.903 119.129 215.48 116.032 216.636 117.795 221.347 118.671 223.697 120.434 228.408 107.685 233.179 95.0663 238.308 82.5966 243.766 80.5748 239.165 79.5688 236.864 77.547 232.253 74.4993 233.587 72.9755 234.264 69.9278 235.639 65.7944 226.476 63.7228 221.894 59.5795 212.731 65.8642 209.893 69.0214 208.508 75.3459 205.819 79.28 215.072 81.2521 219.693 85.1862 228.946 94.3791 225.042 98.9905 223.159 108.273 219.574 100.714 200.043 93.164 180.501 85.6045 160.97 78.9015 163.56 75.565 164.894 68.9019 167.643 66.9996 163.012 66.0434 160.681 64.1212 156.04Z" fill="#FFFFFF" fill-rule="nonzero" fill-opacity="1" transform="matrix(1.0017 0 0 1 258.539 194)"/><path d="M189.973 206.218C176.926 209.684 163.968 213.508 151.13 217.681 149.576 212.901 148.799 210.51 147.246 205.73 144.108 206.746 142.535 207.273 139.407 208.329 132.714 188.479 126.021 168.629 119.328 148.789 122.725 147.644 124.418 147.086 127.814 145.981 126.26 141.2 125.484 138.81 123.93 134.029 138.342 129.457 152.793 125.195 167.364 121.201 168.659 126.061 169.297 128.491 170.591 133.342 174.038 132.426 175.761 131.977 179.207 131.101 184.366 151.399 189.525 171.697 194.684 192.005 191.497 192.812 189.904 193.23 186.726 194.077 188.041 198.927 188.688 201.357 189.973 206.218ZM178.808 196.228C173.211 176.049 167.604 155.861 162.006 135.682 151.698 138.541 146.568 140.055 136.34 143.262 142.594 163.251 148.859 183.24 155.114 203.23 164.556 200.262 169.297 198.867 178.808 196.228Z" fill="#FFFFFF" fill-rule="nonzero" fill-opacity="1" transform="matrix(1.0017 0 0 1 258.539 194)"/><path d="M224.115 172.305C227.382 171.627 229.016 171.289 232.282 170.651 233.259 175.581 233.737 178.051 234.713 182.981 241.147 181.717 244.364 181.119 250.818 179.994 249.085 170.093 248.218 165.133 246.495 155.233 243.159 155.811 241.495 156.12 238.169 156.737 237.252 151.797 236.794 149.327 235.868 144.377 246.007 142.495 251.097 141.628 261.285 140.085 263.815 156.648 266.335 173.211 268.865 189.784 255.598 191.806 242.392 194.186 229.255 196.925 228.229 192.005 227.721 189.545 226.695 184.625 223.488 185.292 221.884 185.641 218.677 186.338 217.602 181.428 217.064 178.978 215.978 174.067 212.721 174.785 211.098 175.153 207.841 175.9 205.013 163.659 202.184 151.409 199.345 139.168 202.752 138.381 204.465 137.993 207.881 137.246 206.805 132.336 206.267 129.886 205.182 124.976 208.648 124.209 210.391 123.84 213.867 123.113 212.841 118.193 212.333 115.733 211.307 110.813 226.038 107.855 240.778 105.195 255.608 102.825 256.365 107.795 256.744 110.275 257.501 115.245 245.818 117.028 234.165 119.059 222.572 121.35 223.548 126.28 224.026 128.75 225.002 133.68 221.576 134.358 219.863 134.706 216.436 135.413 218.986 147.694 221.556 160.004 224.115 172.305Z" fill="#FFFFFF" fill-rule="nonzero" fill-opacity="1" transform="matrix(1.0017 0 0 1 258.539 194)"/><path d="M322.817 158.351C312.887 159.098 307.927 159.556 298.027 160.632 299.113 170.631 299.651 175.621 300.736 185.621 294.352 186.318 291.155 186.696 284.781 187.523 282.072 166.757 279.362 145.981 276.653 125.215 280.109 124.766 281.842 124.547 285.298 124.139 284.701 119.149 284.402 116.649 283.805 111.659 287.32 111.241 289.073 111.042 292.599 110.653 292.061 105.654 291.782 103.154 291.245 98.1638 301.961 96.9985 307.33 96.5105 318.066 95.6938 318.445 100.704 318.634 103.213 319.012 108.223 322.538 107.954 324.301 107.835 327.827 107.606 328.156 112.625 328.315 115.135 328.644 120.145 332.12 119.916 333.853 119.816 337.328 119.627 338.454 140.543 339.589 161.458 340.715 182.374 334.311 182.723 331.104 182.932 324.699 183.41 323.952 173.38 323.574 168.37 322.817 158.351ZM296.663 148.132C306.732 147.037 311.772 146.578 321.861 145.811 321.104 135.782 320.725 130.772 319.959 120.753 316.483 121.012 314.75 121.161 311.284 121.46 310.845 116.45 310.636 113.95 310.198 108.94 306.672 109.249 304.909 109.408 301.394 109.747 301.882 114.747 302.121 117.257 302.609 122.257 299.143 122.595 297.41 122.774 293.944 123.153 295.039 133.143 295.577 138.142 296.663 148.132Z" fill="#FFFFFF" fill-rule="nonzero" fill-opacity="1" transform="matrix(1.0017 0 0 1 258.539 194)"/><path d="M353.902 93.7516C371.859 93.2934 389.757 93.2934 407.714 93.7516 407.555 98.7713 407.465 101.291 407.306 106.311 400.245 106.082 396.709 106.002 389.637 105.932 389.368 131.061 389.1 156.2 388.821 181.328 382.407 181.258 379.199 181.258 372.775 181.328 372.507 156.2 372.238 131.061 371.959 105.932 364.887 106.012 361.362 106.082 354.29 106.311 354.151 101.291 354.071 98.7813 353.902 93.7516Z" fill="#FFFFFF" fill-rule="nonzero" fill-opacity="1" transform="matrix(1.0017 0 0 1 258.539 194)"/><path d="M463.609 160.632C453.699 159.556 448.739 159.098 438.819 158.351 438.062 168.38 437.683 173.39 436.917 183.41 430.512 182.922 427.315 182.713 420.901 182.374 422.027 161.458 423.162 140.543 424.288 119.627 427.763 119.816 429.496 119.916 432.972 120.145 433.301 115.125 433.46 112.625 433.789 107.606 437.315 107.835 439.078 107.954 442.604 108.223 442.982 103.213 443.171 100.704 443.55 95.6938 454.286 96.5105 459.655 96.9985 470.371 98.1638 469.834 103.164 469.555 105.664 469.017 110.653 472.533 111.032 474.296 111.231 477.811 111.649 477.214 116.639 476.915 119.139 476.318 124.129 479.774 124.537 481.507 124.756 484.963 125.205 482.254 145.971 479.544 166.747 476.835 187.513 470.461 186.687 467.274 186.298 460.88 185.611 461.975 175.621 462.523 170.621 463.609 160.632ZM439.755 145.811C449.844 146.578 454.884 147.037 464.953 148.132 466.039 138.132 466.577 133.143 467.662 123.143 464.196 122.765 462.463 122.585 458.997 122.247 459.485 117.247 459.724 114.737 460.213 109.737 456.687 109.398 454.934 109.229 451.408 108.93 450.97 113.94 450.761 116.44 450.322 121.45 446.856 121.151 445.113 121.012 441.647 120.743 440.9 130.782 440.522 135.792 439.755 145.811Z" fill="#FFFFFF" fill-rule="nonzero" fill-opacity="1" transform="matrix(1.0017 0 0 1 258.539 194)"/><path d="M542.63 147.694C545.19 135.394 547.759 123.083 550.319 110.783 557.38 112.257 560.906 113.024 567.938 114.657 561.334 143.232 554.731 171.797 548.128 200.371 541.833 198.917 538.686 198.23 532.371 196.905 533.397 191.985 533.905 189.525 534.931 184.605 531.724 183.938 530.11 183.609 526.903 182.981 527.879 178.051 528.357 175.581 529.333 170.651 526.067 170.004 524.433 169.695 521.157 169.088 522.073 164.147 522.531 161.677 523.457 156.727 520.131 156.11 518.467 155.811 515.131 155.223 512.97 167.604 510.808 179.984 508.647 192.364 502.303 191.258 499.125 190.74 492.771 189.764 497.193 160.771 501.605 131.788 506.028 102.795 513.139 103.881 516.695 104.458 523.786 105.703 522.919 110.653 522.491 113.133 521.625 118.083 525.121 118.691 526.864 119.01 530.349 119.657 529.433 124.597 528.975 127.067 528.049 132.017 531.485 132.655 533.198 132.983 536.634 133.661 535.658 138.591 535.18 141.061 534.204 145.991 537.58 146.658 539.263 146.997 542.63 147.694Z" fill="#FFFFFF" fill-rule="nonzero" fill-opacity="1" transform="matrix(1.0017 0 0 1 258.539 194)"/><path d="M610.267 191.228C600.666 188.22 595.845 186.796 586.174 184.117 583.485 193.808 582.14 198.648 579.451 208.339 573.216 206.606 570.089 205.779 563.824 204.186 568.984 183.888 574.143 163.59 579.302 143.282 582.698 144.148 584.391 144.586 587.788 145.483 589.082 140.622 589.72 138.192 591.015 133.342 594.461 134.258 596.174 134.726 599.61 135.672 600.954 130.832 601.622 128.402 602.966 123.561 613.434 126.47 618.643 128.003 629.031 131.26 627.527 136.061 626.78 138.461 625.276 143.252 628.682 144.318 630.386 144.865 633.792 145.971 632.238 150.752 631.461 153.142 629.908 157.923 633.254 159.008 634.927 159.566 638.264 160.691 631.571 180.541 624.878 200.391 618.185 220.231 612.03 218.15 608.942 217.154 602.747 215.211 605.765 205.62 607.259 200.819 610.267 191.228ZM589.531 172.006C599.361 174.735 604.261 176.179 614.022 179.237 617.03 169.645 618.524 164.845 621.531 155.253 618.175 154.198 616.492 153.69 613.125 152.674 614.579 147.863 615.297 145.453 616.751 140.642 613.334 139.616 611.621 139.109 608.195 138.113 606.801 142.943 606.104 145.353 604.699 150.184 601.323 149.208 599.64 148.73 596.253 147.793 593.564 157.474 592.22 162.315 589.531 172.006Z" fill="#FFFFFF" fill-rule="nonzero" fill-opacity="1" transform="matrix(1.0017 0 0 1 258.539 194)"/><path d="M666.938 184.426C677.794 188.619 688.551 193.061 699.208 197.732 697.186 202.333 696.18 204.634 694.158 209.245 697.316 210.63 698.889 211.327 702.026 212.751 697.893 221.914 695.822 226.496 691.678 235.659 688.641 234.284 687.117 233.607 684.059 232.273 682.037 236.874 681.031 239.175 679.009 243.786 666.54 238.318 653.921 233.199 641.172 228.428 642.935 223.717 643.811 221.367 645.574 216.656 642.467 215.49 640.913 214.923 637.806 213.797 639.519 209.066 640.375 206.706 642.078 201.975 648.413 204.266 651.56 205.451 657.855 207.881 656.042 212.572 655.136 214.913 653.323 219.604 662.606 223.199 667.227 225.072 676.41 228.976 680.344 219.723 682.316 215.102 686.25 205.849 675.673 201.447 665.086 197.214 654.389 193.121 656.152 188.41 657.028 186.059 658.791 181.348 655.534 180.133 653.901 179.525 650.634 178.34 654.05 168.888 655.763 164.157 659.189 154.706 662.566 155.931 664.249 156.548 667.605 157.803 669.368 153.092 670.245 150.742 672.008 146.031 683.412 150.303 694.716 154.815 705.921 159.586 703.949 164.207 702.973 166.528 701.001 171.149 704.317 172.564 705.971 173.271 709.277 174.725 707.255 179.326 706.249 181.627 704.228 186.238 697.714 183.39 694.447 181.995 687.894 179.296 689.806 174.645 690.772 172.324 692.684 167.673 686.021 164.924 682.685 163.59 675.982 161 672.376 170.362 670.564 175.053 666.938 184.426Z" fill="#FFFFFF" fill-rule="nonzero" fill-opacity="1" transform="matrix(1.0017 0 0 1 258.539 194)"/></g></g></g></g></g></svg>